<svg width="60" height="60" viewBox="0 0 60 60" xmlns="http://www.w3.org/2000/svg">
  <!-- Animal theme ship - With energy shield -->
  
  <!-- Shield outer glow (multiple layers for depth - green) -->
  <ellipse cx="30" cy="30" rx="28" ry="26" fill="#27ae60" opacity="0.15"/>
  <ellipse cx="30" cy="30" rx="26" ry="24" fill="#2ecc71" opacity="0.2"/>
  
  <!-- Shield main body (semi-transparent energy field - green) -->
  <ellipse cx="30" cy="30" rx="26" ry="24" fill="#27ae60" opacity="0.25" stroke="#2ecc71" stroke-width="1.5"/>
  
  <!-- Shield inner glow -->
  <ellipse cx="30" cy="30" rx="24" ry="22" fill="#2ecc71" opacity="0.15"/>
  
  <!-- Shield energy particles/sparkles -->
  <circle cx="8" cy="30" r="1.5" fill="#ffffff" opacity="0.8"/>
  <circle cx="52" cy="30" r="1.5" fill="#ffffff" opacity="0.8"/>
  <circle cx="30" cy="8" r="1.5" fill="#ffffff" opacity="0.8"/>
  <circle cx="30" cy="52" r="1.5" fill="#ffffff" opacity="0.8"/>
  <circle cx="18" cy="18" r="1" fill="#2ecc71" opacity="0.7"/>
  <circle cx="42" cy="18" r="1" fill="#2ecc71" opacity="0.7"/>
  <circle cx="18" cy="42" r="1" fill="#2ecc71" opacity="0.7"/>
  <circle cx="42" cy="42" r="1" fill="#2ecc71" opacity="0.7"/>
  
  <!-- Shield hexagonal pattern overlay (subtle) -->
  <path d="M 30 6 L 38 10 L 38 18 L 30 22 L 22 18 L 22 10 Z" 
        fill="none" stroke="#2ecc71" stroke-width="0.5" opacity="0.3"/>
  <path d="M 30 38 L 38 42 L 38 50 L 30 54 L 22 50 L 22 42 Z" 
        fill="none" stroke="#2ecc71" stroke-width="0.5" opacity="0.3"/>
  
  <!-- Shield energy ripples (pulsing effect) -->
  <ellipse cx="30" cy="30" rx="25" ry="23" fill="none" stroke="#ffffff" stroke-width="0.8" opacity="0.4"/>
  <ellipse cx="30" cy="30" rx="23" ry="21" fill="none" stroke="#2ecc71" stroke-width="0.6" opacity="0.5"/>
  
  <!-- Main fuselage body (green) -->
  <path d="M 30 5 L 26 18 L 22 22 L 22 32 L 26 36 L 30 42 L 34 36 L 38 32 L 38 22 L 34 18 Z" 
        fill="#27ae60" stroke="#2ecc71" stroke-width="1"/>
  
  <!-- Animal face cockpit window (cat/dog eyes) -->
  <ellipse cx="27" cy="12" rx="2" ry="2.5" fill="#1a1a1a" stroke="#000000" stroke-width="0.5"/>
  <ellipse cx="33" cy="12" rx="2" ry="2.5" fill="#1a1a1a" stroke="#000000" stroke-width="0.5"/>
  <ellipse cx="27" cy="12" rx="1" ry="1.2" fill="#ffffff"/>
  <ellipse cx="33" cy="12" rx="1" ry="1.2" fill="#ffffff"/>
  <!-- Nose -->
  <path d="M 30 14 L 29 15 L 31 15 Z" fill="#ff69b4" stroke="#000000" stroke-width="0.3"/>
  
  <!-- Paw prints on body -->
  <!-- Left paw -->
  <circle cx="24" cy="24" r="2" fill="#1a1a1a" opacity="0.6"/>
  <circle cx="23" cy="22" r="1" fill="#1a1a1a" opacity="0.6"/>
  <circle cx="25" cy="22" r="1" fill="#1a1a1a" opacity="0.6"/>
  <circle cx="23" cy="25" r="1" fill="#1a1a1a" opacity="0.6"/>
  <circle cx="25" cy="25" r="1" fill="#1a1a1a" opacity="0.6"/>
  
  <!-- Right paw -->
  <circle cx="36" cy="24" r="2" fill="#1a1a1a" opacity="0.6"/>
  <circle cx="35" cy="22" r="1" fill="#1a1a1a" opacity="0.6"/>
  <circle cx="37" cy="22" r="1" fill="#1a1a1a" opacity="0.6"/>
  <circle cx="35" cy="25" r="1" fill="#1a1a1a" opacity="0.6"/>
  <circle cx="37" cy="25" r="1" fill="#1a1a1a" opacity="0.6"/>
  
  <!-- Animal spots/patterns -->
  <circle cx="28" cy="28" r="1.5" fill="#2ecc71" opacity="0.7"/>
  <circle cx="32" cy="30" r="1.5" fill="#2ecc71" opacity="0.7"/>
  
  <!-- Main wings (green, leaf-like) -->
  <path d="M 22 22 L 10 26 L 10 30 L 22 32" fill="#27ae60" stroke="#2ecc71" stroke-width="1"/>
  <path d="M 38 22 L 50 26 L 50 30 L 38 32" fill="#27ae60" stroke="#2ecc71" stroke-width="1"/>
  
  <!-- Leaf veins on wings -->
  <line x1="16" y1="26" x2="16" y2="30" stroke="#2ecc71" stroke-width="0.5" opacity="0.5"/>
  <line x1="44" y1="26" x2="44" y2="30" stroke="#2ecc71" stroke-width="0.5" opacity="0.5"/>
  
  <!-- Wing extensions -->
  <rect x="8" y="27" width="4" height="4" fill="#27ae60" stroke="#2ecc71" stroke-width="0.5"/>
  <rect x="48" y="27" width="4" height="4" fill="#27ae60" stroke="#2ecc71" stroke-width="0.5"/>
  
  <!-- Green accent stripes on wings -->
  <rect x="12" y="27" width="8" height="1" fill="#2ecc71"/>
  <rect x="40" y="27" width="8" height="1" fill="#2ecc71"/>
  
  <!-- Lower engine nacelles/pods (green) -->
  <ellipse cx="18" cy="38" rx="3" ry="5" fill="#27ae60" stroke="#2ecc71" stroke-width="0.5"/>
  <ellipse cx="42" cy="38" rx="3" ry="5" fill="#27ae60" stroke="#2ecc71" stroke-width="0.5"/>
  
  <!-- Green accent bands on pods -->
  <rect x="16" y="40" width="4" height="2.5" fill="#2ecc71" rx="1"/>
  <rect x="40" y="40" width="4" height="2.5" fill="#2ecc71" rx="1"/>
  
  <!-- Central engine (green glow) -->
  <ellipse cx="30" cy="46" rx="4" ry="3" fill="#333333"/>
  <ellipse cx="30" cy="50" rx="5" ry="4" fill="#27ae60" opacity="0.9"/>
  <ellipse cx="30" cy="52" rx="4" ry="3" fill="#2ecc71" opacity="0.7"/>
  <ellipse cx="30" cy="54" rx="3" ry="2" fill="#229954" opacity="0.5"/>
  
  <!-- Side engines (green glow) -->
  <ellipse cx="18" cy="44" rx="2.5" ry="2" fill="#333333"/>
  <ellipse cx="18" cy="47" rx="3" ry="2.5" fill="#27ae60" opacity="0.9"/>
  <ellipse cx="18" cy="49" rx="2.5" ry="2" fill="#2ecc71" opacity="0.7"/>
  <ellipse cx="18" cy="50.5" rx="2" ry="1.5" fill="#229954" opacity="0.5"/>
  
  <ellipse cx="42" cy="44" rx="2.5" ry="2" fill="#333333"/>
  <ellipse cx="42" cy="47" rx="3" ry="2.5" fill="#27ae60" opacity="0.9"/>
  <ellipse cx="42" cy="49" rx="2.5" ry="2" fill="#2ecc71" opacity="0.7"/>
  <ellipse cx="42" cy="50.5" rx="2" ry="1.5" fill="#229954" opacity="0.5"/>
  
  <!-- Additional structural details -->
  <line x1="22" y1="22" x2="22" y2="32" stroke="#2ecc71" stroke-width="0.5" opacity="0.5"/>
  <line x1="38" y1="22" x2="38" y2="32" stroke="#2ecc71" stroke-width="0.5" opacity="0.5"/>
  
  <!-- Shield impact points (subtle energy discharge) -->
  <circle cx="15" cy="25" r="1.5" fill="#2ecc71" opacity="0.6"/>
  <circle cx="45" cy="25" r="1.5" fill="#2ecc71" opacity="0.6"/>
  <circle cx="15" cy="35" r="1.5" fill="#2ecc71" opacity="0.6"/>
  <circle cx="45" cy="35" r="1.5" fill="#2ecc71" opacity="0.6"/>
</svg>



