<svg width="60" height="60" viewBox="0 0 60 60" xmlns="http://www.w3.org/2000/svg">
  <!-- Animal theme ship - With enhanced, hotter, larger green engine flames -->
  
  <!-- Main fuselage body (green) -->
  <path d="M 30 5 L 26 18 L 22 22 L 22 32 L 26 36 L 30 42 L 34 36 L 38 32 L 38 22 L 34 18 Z" 
        fill="#27ae60" stroke="#2ecc71" stroke-width="1"/>
  
  <!-- Animal face cockpit window (cat/dog eyes) -->
  <ellipse cx="27" cy="12" rx="2" ry="2.5" fill="#1a1a1a" stroke="#000000" stroke-width="0.5"/>
  <ellipse cx="33" cy="12" rx="2" ry="2.5" fill="#1a1a1a" stroke="#000000" stroke-width="0.5"/>
  <ellipse cx="27" cy="12" rx="1" ry="1.2" fill="#ffffff"/>
  <ellipse cx="33" cy="12" rx="1" ry="1.2" fill="#ffffff"/>
  <!-- Nose -->
  <path d="M 30 14 L 29 15 L 31 15 Z" fill="#ff69b4" stroke="#000000" stroke-width="0.3"/>
  
  <!-- Paw prints on body -->
  <!-- Left paw -->
  <circle cx="24" cy="24" r="2" fill="#1a1a1a" opacity="0.6"/>
  <circle cx="23" cy="22" r="1" fill="#1a1a1a" opacity="0.6"/>
  <circle cx="25" cy="22" r="1" fill="#1a1a1a" opacity="0.6"/>
  <circle cx="23" cy="25" r="1" fill="#1a1a1a" opacity="0.6"/>
  <circle cx="25" cy="25" r="1" fill="#1a1a1a" opacity="0.6"/>
  
  <!-- Right paw -->
  <circle cx="36" cy="24" r="2" fill="#1a1a1a" opacity="0.6"/>
  <circle cx="35" cy="22" r="1" fill="#1a1a1a" opacity="0.6"/>
  <circle cx="37" cy="22" r="1" fill="#1a1a1a" opacity="0.6"/>
  <circle cx="35" cy="25" r="1" fill="#1a1a1a" opacity="0.6"/>
  <circle cx="37" cy="25" r="1" fill="#1a1a1a" opacity="0.6"/>
  
  <!-- Animal spots/patterns -->
  <circle cx="28" cy="28" r="1.5" fill="#2ecc71" opacity="0.7"/>
  <circle cx="32" cy="30" r="1.5" fill="#2ecc71" opacity="0.7"/>
  
  <!-- Main wings (green, leaf-like) -->
  <path d="M 22 22 L 10 26 L 10 30 L 22 32" fill="#27ae60" stroke="#2ecc71" stroke-width="1"/>
  <path d="M 38 22 L 50 26 L 50 30 L 38 32" fill="#27ae60" stroke="#2ecc71" stroke-width="1"/>
  
  <!-- Leaf veins on wings -->
  <line x1="16" y1="26" x2="16" y2="30" stroke="#2ecc71" stroke-width="0.5" opacity="0.5"/>
  <line x1="44" y1="26" x2="44" y2="30" stroke="#2ecc71" stroke-width="0.5" opacity="0.5"/>
  
  <!-- Wing extensions -->
  <rect x="8" y="27" width="4" height="4" fill="#27ae60" stroke="#2ecc71" stroke-width="0.5"/>
  <rect x="48" y="27" width="4" height="4" fill="#27ae60" stroke="#2ecc71" stroke-width="0.5"/>
  
  <!-- Green accent stripes on wings -->
  <rect x="12" y="27" width="8" height="1" fill="#2ecc71"/>
  <rect x="40" y="27" width="8" height="1" fill="#2ecc71"/>
  
  <!-- Lower engine nacelles/pods (green) -->
  <ellipse cx="18" cy="38" rx="3" ry="5" fill="#27ae60" stroke="#2ecc71" stroke-width="0.5"/>
  <ellipse cx="42" cy="38" rx="3" ry="5" fill="#27ae60" stroke="#2ecc71" stroke-width="0.5"/>
  
  <!-- Green accent bands on pods -->
  <rect x="16" y="40" width="4" height="2.5" fill="#2ecc71" rx="1"/>
  <rect x="40" y="40" width="4" height="2.5" fill="#2ecc71" rx="1"/>
  
  <!-- Central engine base -->
  <ellipse cx="30" cy="46" rx="4" ry="3" fill="#333333"/>
  
  <!-- Central engine - ENHANCED GREEN FLAMES -->
  <ellipse cx="30" cy="57" rx="7" ry="5" fill="#27ae60" opacity="0.7"/>
  <ellipse cx="30" cy="55.5" rx="6.5" ry="4.5" fill="#27ae60" opacity="0.8"/>
  <ellipse cx="30" cy="54" rx="6" ry="4" fill="#2ecc71" opacity="0.85"/>
  <ellipse cx="30" cy="52.5" rx="5.5" ry="3.5" fill="#00cc88" opacity="0.9"/>
  <ellipse cx="30" cy="51" rx="5" ry="3" fill="#00dd99" opacity="0.95"/>
  <ellipse cx="30" cy="49.5" rx="4.5" ry="2.5" fill="#00eeaa" opacity="1"/>
  <ellipse cx="30" cy="48.5" rx="4" ry="3" fill="#00ffbb" opacity="1"/>
  <ellipse cx="30" cy="47.5" rx="3.5" ry="2.5" fill="#88ffcc" opacity="1"/>
  <ellipse cx="30" cy="46.5" rx="3" ry="2" fill="#aaffdd" opacity="1"/>
  <ellipse cx="30" cy="45.5" rx="2.5" ry="1.5" fill="#ccffee" opacity="0.95"/>
  <ellipse cx="30" cy="44.5" rx="2" ry="1" fill="#eeffff" opacity="0.9"/>
  
  <!-- Side engines base -->
  <ellipse cx="18" cy="44" rx="2.5" ry="2" fill="#333333"/>
  <ellipse cx="42" cy="44" rx="2.5" ry="2" fill="#333333"/>
  
  <!-- Left side engine - ENHANCED GREEN FLAMES -->
  <ellipse cx="18" cy="56" rx="5" ry="4" fill="#27ae60" opacity="0.7"/>
  <ellipse cx="18" cy="54.5" rx="4.5" ry="3.5" fill="#2ecc71" opacity="0.8"/>
  <ellipse cx="18" cy="53" rx="4" ry="3" fill="#00cc88" opacity="0.85"/>
  <ellipse cx="18" cy="51.5" rx="3.5" ry="2.5" fill="#00dd99" opacity="0.9"/>
  <ellipse cx="18" cy="50" rx="3" ry="2" fill="#00eeaa" opacity="0.95"/>
  <ellipse cx="18" cy="48.5" rx="2.5" ry="1.5" fill="#00ffbb" opacity="1"/>
  <ellipse cx="18" cy="47" rx="2.5" ry="2" fill="#88ffcc" opacity="1"/>
  <ellipse cx="18" cy="46" rx="2" ry="1.5" fill="#aaffdd" opacity="1"/>
  <ellipse cx="18" cy="45.5" rx="1.5" ry="1" fill="#ccffee" opacity="1"/>
  <ellipse cx="18" cy="45" rx="1.2" ry="0.8" fill="#eeffff" opacity="0.95"/>
  <ellipse cx="18" cy="44.5" rx="1" ry="0.6" fill="#ffffff" opacity="0.9"/>
  
  <!-- Right side engine - ENHANCED GREEN FLAMES -->
  <ellipse cx="42" cy="56" rx="5" ry="4" fill="#27ae60" opacity="0.7"/>
  <ellipse cx="42" cy="54.5" rx="4.5" ry="3.5" fill="#2ecc71" opacity="0.8"/>
  <ellipse cx="42" cy="53" rx="4" ry="3" fill="#00cc88" opacity="0.85"/>
  <ellipse cx="42" cy="51.5" rx="3.5" ry="2.5" fill="#00dd99" opacity="0.9"/>
  <ellipse cx="42" cy="50" rx="3" ry="2" fill="#00eeaa" opacity="0.95"/>
  <ellipse cx="42" cy="48.5" rx="2.5" ry="1.5" fill="#00ffbb" opacity="1"/>
  <ellipse cx="42" cy="47" rx="2.5" ry="2" fill="#88ffcc" opacity="1"/>
  <ellipse cx="42" cy="46" rx="2" ry="1.5" fill="#aaffdd" opacity="1"/>
  <ellipse cx="42" cy="45.5" rx="1.5" ry="1" fill="#ccffee" opacity="1"/>
  <ellipse cx="42" cy="45" rx="1.2" ry="0.8" fill="#eeffff" opacity="0.95"/>
  <ellipse cx="42" cy="44.5" rx="1" ry="0.6" fill="#ffffff" opacity="0.9"/>
  
  <!-- Additional flame particles/sparks -->
  <circle cx="28" cy="56.5" r="0.8" fill="#00dd99" opacity="0.8"/>
  <circle cx="32" cy="56.5" r="0.8" fill="#00dd99" opacity="0.8"/>
  <circle cx="16" cy="55.5" r="0.6" fill="#00cc88" opacity="0.7"/>
  <circle cx="20" cy="55.5" r="0.6" fill="#00cc88" opacity="0.7"/>
  <circle cx="40" cy="55.5" r="0.6" fill="#00cc88" opacity="0.7"/>
  <circle cx="44" cy="55.5" r="0.6" fill="#00cc88" opacity="0.7"/>
  
  <!-- Additional structural details -->
  <line x1="22" y1="22" x2="22" y2="32" stroke="#2ecc71" stroke-width="0.5" opacity="0.5"/>
  <line x1="38" y1="22" x2="38" y2="32" stroke="#2ecc71" stroke-width="0.5" opacity="0.5"/>
  
  <!-- Heat glow effect around engines (green) -->
  <ellipse cx="30" cy="50" rx="8" ry="6" fill="#27ae60" opacity="0.15"/>
  <ellipse cx="18" cy="50" rx="6" ry="5" fill="#27ae60" opacity="0.12"/>
  <ellipse cx="42" cy="50" rx="6" ry="5" fill="#27ae60" opacity="0.12"/>
</svg>






