<svg width="60" height="60" viewBox="0 0 60 60" xmlns="http://www.w3.org/2000/svg">
  <!-- Art ship - With enhanced, hotter, larger engine flames -->
  
  <defs>
    <!-- Gradient for main body -->
    <linearGradient id="bodyGradient" x1="0%" y1="0%" x2="0%" y2="100%">
      <stop offset="0%" style="stop-color:#e8e8e8;stop-opacity:1" />
      <stop offset="50%" style="stop-color:#d0d0d0;stop-opacity:1" />
      <stop offset="100%" style="stop-color:#b8b8b8;stop-opacity:1" />
    </linearGradient>
    
    <!-- Gradient for wings -->
    <linearGradient id="wingGradient" x1="0%" y1="0%" x2="100%" y2="0%">
      <stop offset="0%" style="stop-color:#d8d8d8;stop-opacity:1" />
      <stop offset="50%" style="stop-color:#c0c0c0;stop-opacity:1" />
      <stop offset="100%" style="stop-color:#a8a8a8;stop-opacity:1" />
    </linearGradient>
    
    <!-- Gradient for engine pods -->
    <radialGradient id="podGradient" cx="50%" cy="50%">
      <stop offset="0%" style="stop-color:#555555;stop-opacity:1" />
      <stop offset="100%" style="stop-color:#333333;stop-opacity:1" />
    </radialGradient>
  </defs>
  
  <!-- Main body (triangular/arrow shape) with gradient -->
  <path d="M 30 3 L 28 12 L 24 18 L 24 28 L 28 36 L 30 42 L 32 36 L 36 28 L 36 18 L 32 12 Z" 
        fill="url(#bodyGradient)" stroke="#888888" stroke-width="1.2"/>
  
  <!-- Body highlight (top section) -->
  <path d="M 30 3 L 28 12 L 24 18 L 30 18 L 32 12 Z" 
        fill="#f0f0f0" opacity="0.6"/>
  
  <!-- Body shadow (bottom section) -->
  <path d="M 30 42 L 32 36 L 36 28 L 36 18 L 32 12 L 30 18 L 28 36 Z" 
        fill="#a0a0a0" opacity="0.3"/>
  
  <!-- Structural panels on body -->
  <path d="M 28 12 L 24 18 L 24 22 L 28 20 Z" fill="#b8b8b8" opacity="0.4"/>
  <path d="M 32 12 L 36 18 L 36 22 L 32 20 Z" fill="#b8b8b8" opacity="0.4"/>
  <path d="M 24 22 L 24 28 L 28 26 L 28 20 Z" fill="#c8c8c8" opacity="0.3"/>
  <path d="M 36 22 L 36 28 L 32 26 L 32 20 Z" fill="#c8c8c8" opacity="0.3"/>
  
  <!-- Panel lines/seams -->
  <line x1="30" y1="12" x2="30" y2="18" stroke="#999999" stroke-width="0.5" opacity="0.5"/>
  <line x1="26" y1="20" x2="26" y2="28" stroke="#999999" stroke-width="0.4" opacity="0.4"/>
  <line x1="34" y1="20" x2="34" y2="28" stroke="#999999" stroke-width="0.4" opacity="0.4"/>
  <line x1="24" y1="25" x2="36" y2="25" stroke="#999999" stroke-width="0.3" opacity="0.3"/>
  
  <!-- Nose cone tip with detailed antenna -->
  <circle cx="30" cy="3" r="1.2" fill="#777777" stroke="#555555" stroke-width="0.3"/>
  <circle cx="30" cy="3" r="0.6" fill="#999999"/>
  <line x1="30" y1="3" x2="30" y2="5.5" stroke="#666666" stroke-width="0.6"/>
  <line x1="30" y1="3" x2="29.5" y2="4.5" stroke="#666666" stroke-width="0.4"/>
  <line x1="30" y1="3" x2="30.5" y2="4.5" stroke="#666666" stroke-width="0.4"/>
  <circle cx="30" cy="5.5" r="0.4" fill="#666666"/>
  
  <!-- Detailed cockpit window (oval with multiple vertical lines and frame) -->
  <ellipse cx="30" cy="15" rx="4.5" ry="3.5" fill="#0a0a0a" stroke="#000000" stroke-width="0.8"/>
  <ellipse cx="30" cy="15" rx="4" ry="3" fill="#1a1a1a" stroke="#222222" stroke-width="0.3"/>
  
  <!-- Cockpit frame (outer) -->
  <ellipse cx="30" cy="15" rx="4.5" ry="3.5" fill="none" stroke="#666666" stroke-width="0.5" opacity="0.6"/>
  
  <!-- Vertical lines inside cockpit (more detailed) -->
  <line x1="27" y1="12.5" x2="27" y2="17.5" stroke="#333333" stroke-width="0.6"/>
  <line x1="28.5" y1="12.5" x2="28.5" y2="17.5" stroke="#333333" stroke-width="0.6"/>
  <line x1="30" y1="12.5" x2="30" y2="17.5" stroke="#333333" stroke-width="0.6"/>
  <line x1="31.5" y1="12.5" x2="31.5" y2="17.5" stroke="#333333" stroke-width="0.6"/>
  <line x1="33" y1="12.5" x2="33" y2="17.5" stroke="#333333" stroke-width="0.6"/>
  
  <!-- Cockpit highlight/reflection -->
  <ellipse cx="30" cy="13.5" rx="2" ry="1" fill="#444444" opacity="0.3"/>
  
  <!-- Small dots/rivets on main body (more detailed pattern) -->
  <!-- Top section -->
  <circle cx="26" cy="19" r="0.9" fill="#666666" stroke="#555555" stroke-width="0.2"/>
  <circle cx="34" cy="19" r="0.9" fill="#666666" stroke="#555555" stroke-width="0.2"/>
  <circle cx="27.5" cy="21" r="0.7" fill="#666666" stroke="#555555" stroke-width="0.15"/>
  <circle cx="32.5" cy="21" r="0.7" fill="#666666" stroke="#555555" stroke-width="0.15"/>
  
  <!-- Middle section -->
  <circle cx="26" cy="24" r="0.9" fill="#666666" stroke="#555555" stroke-width="0.2"/>
  <circle cx="34" cy="24" r="0.9" fill="#666666" stroke="#555555" stroke-width="0.2"/>
  <circle cx="27" cy="26" r="0.8" fill="#666666" stroke="#555555" stroke-width="0.2"/>
  <circle cx="33" cy="26" r="0.8" fill="#666666" stroke="#555555" stroke-width="0.2"/>
  <circle cx="27.5" cy="28" r="0.7" fill="#666666" stroke="#555555" stroke-width="0.15"/>
  <circle cx="32.5" cy="28" r="0.7" fill="#666666" stroke="#555555" stroke-width="0.15"/>
  
  <!-- Lower section -->
  <circle cx="26" cy="30" r="0.9" fill="#666666" stroke="#555555" stroke-width="0.2"/>
  <circle cx="34" cy="30" r="0.9" fill="#666666" stroke="#555555" stroke-width="0.2"/>
  <circle cx="27" cy="32" r="0.8" fill="#666666" stroke="#555555" stroke-width="0.2"/>
  <circle cx="33" cy="32" r="0.8" fill="#666666" stroke="#555555" stroke-width="0.2"/>
  
  <!-- Rivet highlights -->
  <circle cx="26" cy="19" r="0.4" fill="#888888" opacity="0.6"/>
  <circle cx="34" cy="19" r="0.4" fill="#888888" opacity="0.6"/>
  <circle cx="26" cy="24" r="0.4" fill="#888888" opacity="0.6"/>
  <circle cx="34" cy="24" r="0.4" fill="#888888" opacity="0.6"/>
  
  <!-- Main wings (delta-wing design with more detail) -->
  <path d="M 24 18 L 15 24 L 15 28 L 24 28" fill="url(#wingGradient)" stroke="#666666" stroke-width="1.2"/>
  <path d="M 36 18 L 45 24 L 45 28 L 36 28" fill="url(#wingGradient)" stroke="#666666" stroke-width="1.2"/>
  
  <!-- Wing highlights -->
  <path d="M 24 18 L 18 22 L 18 24 L 24 24" fill="#e0e0e0" opacity="0.5"/>
  <path d="M 36 18 L 42 22 L 42 24 L 36 24" fill="#e0e0e0" opacity="0.5"/>
  
  <!-- Wing shadows -->
  <path d="M 15 24 L 15 28 L 18 26 L 18 24" fill="#999999" opacity="0.4"/>
  <path d="M 45 24 L 45 28 L 42 26 L 42 24" fill="#999999" opacity="0.4"/>
  
  <!-- Wing structural lines -->
  <line x1="20" y1="20" x2="18" y2="24" stroke="#888888" stroke-width="0.4" opacity="0.5"/>
  <line x1="20" y1="24" x2="18" y2="26" stroke="#888888" stroke-width="0.4" opacity="0.5"/>
  <line x1="40" y1="20" x2="42" y2="24" stroke="#888888" stroke-width="0.4" opacity="0.5"/>
  <line x1="40" y1="24" x2="42" y2="26" stroke="#888888" stroke-width="0.4" opacity="0.5"/>
  
  <!-- Wing tips (pointed with more detail) -->
  <path d="M 15 24 L 12 26 L 15 28" fill="#999999" stroke="#555555" stroke-width="1"/>
  <path d="M 45 24 L 48 26 L 45 28" fill="#999999" stroke="#555555" stroke-width="1"/>
  <path d="M 14 25 L 12 26 L 14 27" fill="#777777" opacity="0.6"/>
  <path d="M 46 25 L 48 26 L 46 27" fill="#777777" opacity="0.6"/>
  
  <!-- Wing tip highlights -->
  <line x1="13.5" y1="25.5" x2="14.5" y2="25.5" stroke="#aaaaaa" stroke-width="0.3"/>
  <line x1="45.5" y1="25.5" x2="46.5" y2="25.5" stroke="#aaaaaa" stroke-width="0.3"/>
  
  <!-- Lower wing pods/nacelles (bulbous engines with gradient) -->
  <ellipse cx="20" cy="38" rx="3.8" ry="5.2" fill="url(#podGradient)" stroke="#222222" stroke-width="1.2"/>
  <ellipse cx="40" cy="38" rx="3.8" ry="5.2" fill="url(#podGradient)" stroke="#222222" stroke-width="1.2"/>
  
  <!-- Pod highlights -->
  <ellipse cx="20" cy="36" rx="2" ry="2.5" fill="#666666" opacity="0.4"/>
  <ellipse cx="40" cy="36" rx="2" ry="2.5" fill="#666666" opacity="0.4"/>
  
  <!-- Pod shadows -->
  <ellipse cx="20" cy="40" rx="2.5" ry="3" fill="#222222" opacity="0.5"/>
  <ellipse cx="40" cy="40" rx="2.5" ry="3" fill="#222222" opacity="0.5"/>
  
  <!-- Engine details (more vertical lines inside) -->
  <!-- Left pod -->
  <line x1="20" y1="34" x2="20" y2="42" stroke="#111111" stroke-width="1"/>
  <line x1="18.2" y1="35" x2="18.2" y2="41" stroke="#222222" stroke-width="0.7"/>
  <line x1="21.8" y1="35" x2="21.8" y2="41" stroke="#222222" stroke-width="0.7"/>
  <line x1="17.5" y1="36.5" x2="17.5" y2="39.5" stroke="#333333" stroke-width="0.5"/>
  <line x1="22.5" y1="36.5" x2="22.5" y2="39.5" stroke="#333333" stroke-width="0.5"/>
  
  <!-- Right pod -->
  <line x1="40" y1="34" x2="40" y2="42" stroke="#111111" stroke-width="1"/>
  <line x1="38.2" y1="35" x2="38.2" y2="41" stroke="#222222" stroke-width="0.7"/>
  <line x1="41.8" y1="35" x2="41.8" y2="41" stroke="#222222" stroke-width="0.7"/>
  <line x1="37.5" y1="36.5" x2="37.5" y2="39.5" stroke="#333333" stroke-width="0.5"/>
  <line x1="42.5" y1="36.5" x2="42.5" y2="39.5" stroke="#333333" stroke-width="0.5"/>
  
  <!-- Pod structural rings -->
  <ellipse cx="20" cy="36" rx="3.5" ry="1" fill="#444444" opacity="0.3"/>
  <ellipse cx="20" cy="40" rx="3.5" ry="1" fill="#222222" opacity="0.4"/>
  <ellipse cx="40" cy="36" rx="3.5" ry="1" fill="#444444" opacity="0.3"/>
  <ellipse cx="40" cy="40" rx="3.5" ry="1" fill="#222222" opacity="0.4"/>
  
  <!-- Central engine base -->
  <ellipse cx="30" cy="45" rx="5" ry="4" fill="#222222" stroke="#111111" stroke-width="1.2"/>
  <ellipse cx="30" cy="45" rx="4.5" ry="3.5" fill="#333333" stroke="#1a1a1a" stroke-width="0.8"/>
  
  <!-- Engine inner ring -->
  <ellipse cx="30" cy="45" rx="3.5" ry="2.5" fill="#1a1a1a" opacity="0.8"/>
  
  <!-- Vertical lines inside central engine -->
  <line x1="27.5" y1="42" x2="27.5" y2="48" stroke="#111111" stroke-width="0.9"/>
  <line x1="30" y1="42" x2="30" y2="48" stroke="#111111" stroke-width="0.9"/>
  <line x1="32.5" y1="42" x2="32.5" y2="48" stroke="#111111" stroke-width="0.9"/>
  <line x1="26" y1="43.5" x2="26" y2="46.5" stroke="#222222" stroke-width="0.6"/>
  <line x1="28.5" y1="43.5" x2="28.5" y2="46.5" stroke="#222222" stroke-width="0.6"/>
  <line x1="31.5" y1="43.5" x2="31.5" y2="46.5" stroke="#222222" stroke-width="0.6"/>
  <line x1="34" y1="43.5" x2="34" y2="46.5" stroke="#222222" stroke-width="0.6"/>
  
  <!-- Engine structural details -->
  <ellipse cx="30" cy="43" rx="4.5" ry="1" fill="#444444" opacity="0.4"/>
  <ellipse cx="30" cy="47" rx="4.5" ry="1" fill="#111111" opacity="0.6"/>
  
  <!-- Central engine - ENHANCED FLAMES (larger, hotter, more intense) -->
  <!-- Outer flame layers (largest, coolest) -->
  <ellipse cx="30" cy="57" rx="7" ry="5" fill="#ff6b35" opacity="0.7"/>
  <ellipse cx="30" cy="55.5" rx="6.5" ry="4.5" fill="#ff6b35" opacity="0.8"/>
  <ellipse cx="30" cy="54" rx="6" ry="4" fill="#ff6b35" opacity="0.85"/>
  
  <!-- Middle flame layers (hotter) -->
  <ellipse cx="30" cy="52.5" rx="5.5" ry="3.5" fill="#ff8c42" opacity="0.9"/>
  <ellipse cx="30" cy="51" rx="5" ry="3" fill="#ffaa00" opacity="0.95"/>
  <ellipse cx="30" cy="49.5" rx="4.5" ry="2.5" fill="#ffaa00" opacity="1"/>
  
  <!-- Inner flame layers (hottest, white-yellow core) -->
  <ellipse cx="30" cy="48.5" rx="4" ry="3" fill="#ffcc00" opacity="1"/>
  <ellipse cx="30" cy="47.5" rx="3.5" ry="2.5" fill="#ffdd44" opacity="1"/>
  <ellipse cx="30" cy="46.5" rx="3" ry="2" fill="#ffee66" opacity="1"/>
  <ellipse cx="30" cy="45.5" rx="2.5" ry="1.5" fill="#ffff88" opacity="0.95"/>
  <ellipse cx="30" cy="44.5" rx="2" ry="1" fill="#ffffff" opacity="0.9"/>
  
  <!-- Side engines base -->
  <ellipse cx="20" cy="45" rx="2.5" ry="2" fill="#333333"/>
  <ellipse cx="40" cy="45" rx="2.5" ry="2" fill="#333333"/>
  
  <!-- Left side engine - ENHANCED FLAMES -->
  <!-- Outer layers -->
  <ellipse cx="20" cy="56" rx="5" ry="4" fill="#ff6b35" opacity="0.7"/>
  <ellipse cx="20" cy="54.5" rx="4.5" ry="3.5" fill="#ff6b35" opacity="0.8"/>
  <ellipse cx="20" cy="53" rx="4" ry="3" fill="#ff6b35" opacity="0.85"/>
  
  <!-- Middle layers -->
  <ellipse cx="20" cy="51.5" rx="3.5" ry="2.5" fill="#ff8c42" opacity="0.9"/>
  <ellipse cx="20" cy="50" rx="3" ry="2" fill="#ffaa00" opacity="0.95"/>
  <ellipse cx="20" cy="48.5" rx="2.5" ry="1.5" fill="#ffaa00" opacity="1"/>
  
  <!-- Inner layers (hottest) -->
  <ellipse cx="20" cy="47" rx="2.5" ry="2" fill="#ffcc00" opacity="1"/>
  <ellipse cx="20" cy="46" rx="2" ry="1.5" fill="#ffdd44" opacity="1"/>
  <ellipse cx="20" cy="45.5" rx="1.5" ry="1" fill="#ffee66" opacity="1"/>
  <ellipse cx="20" cy="45" rx="1.2" ry="0.8" fill="#ffff88" opacity="0.95"/>
  <ellipse cx="20" cy="44.5" rx="1" ry="0.6" fill="#ffffff" opacity="0.9"/>
  
  <!-- Right side engine - ENHANCED FLAMES -->
  <!-- Outer layers -->
  <ellipse cx="40" cy="56" rx="5" ry="4" fill="#ff6b35" opacity="0.7"/>
  <ellipse cx="40" cy="54.5" rx="4.5" ry="3.5" fill="#ff6b35" opacity="0.8"/>
  <ellipse cx="40" cy="53" rx="4" ry="3" fill="#ff6b35" opacity="0.85"/>
  
  <!-- Middle layers -->
  <ellipse cx="40" cy="51.5" rx="3.5" ry="2.5" fill="#ff8c42" opacity="0.9"/>
  <ellipse cx="40" cy="50" rx="3" ry="2" fill="#ffaa00" opacity="0.95"/>
  <ellipse cx="40" cy="48.5" rx="2.5" ry="1.5" fill="#ffaa00" opacity="1"/>
  
  <!-- Inner layers (hottest) -->
  <ellipse cx="40" cy="47" rx="2.5" ry="2" fill="#ffcc00" opacity="1"/>
  <ellipse cx="40" cy="46" rx="2" ry="1.5" fill="#ffdd44" opacity="1"/>
  <ellipse cx="40" cy="45.5" rx="1.5" ry="1" fill="#ffee66" opacity="1"/>
  <ellipse cx="40" cy="45" rx="1.2" ry="0.8" fill="#ffff88" opacity="0.95"/>
  <ellipse cx="40" cy="44.5" rx="1" ry="0.6" fill="#ffffff" opacity="0.9"/>
  
  <!-- Additional flame particles/sparks (for extra intensity) -->
  <circle cx="28" cy="56.5" r="0.8" fill="#ffaa00" opacity="0.8"/>
  <circle cx="32" cy="56.5" r="0.8" fill="#ffaa00" opacity="0.8"/>
  <circle cx="16" cy="55.5" r="0.6" fill="#ffaa00" opacity="0.7"/>
  <circle cx="24" cy="55.5" r="0.6" fill="#ffaa00" opacity="0.7"/>
  <circle cx="36" cy="55.5" r="0.6" fill="#ffaa00" opacity="0.7"/>
  <circle cx="44" cy="55.5" r="0.6" fill="#ffaa00" opacity="0.7"/>
  
  <!-- Additional detailed shading for depth -->
  <path d="M 30 3 L 28 12 L 24 18 L 24 28 L 28 36 L 30 42" 
        fill="none" stroke="#aaaaaa" stroke-width="0.6" opacity="0.4"/>
  <path d="M 30 3 L 32 12 L 36 18 L 36 28 L 32 36 L 30 42" 
        fill="none" stroke="#cccccc" stroke-width="0.5" opacity="0.3"/>
  
  <!-- Edge highlights -->
  <path d="M 30 3 L 28 12 L 24 18" 
        fill="none" stroke="#e8e8e8" stroke-width="0.8" opacity="0.5"/>
  <path d="M 30 3 L 32 12 L 36 18" 
        fill="none" stroke="#e8e8e8" stroke-width="0.8" opacity="0.5"/>
  
  <!-- Heat glow effect around engines -->
  <ellipse cx="30" cy="50" rx="8" ry="6" fill="#ff6b35" opacity="0.15"/>
  <ellipse cx="20" cy="50" rx="6" ry="5" fill="#ff6b35" opacity="0.12"/>
  <ellipse cx="40" cy="50" rx="6" ry="5" fill="#ff6b35" opacity="0.12"/>
</svg>


