<svg width="60" height="60" viewBox="0 0 60 60" xmlns="http://www.w3.org/2000/svg">
  <!-- Art ship - Damaged version with battle scars -->
  
  <defs>
    <!-- Gradient for main body -->
    <linearGradient id="bodyGradient" x1="0%" y1="0%" x2="0%" y2="100%">
      <stop offset="0%" style="stop-color:#e8e8e8;stop-opacity:1" />
      <stop offset="50%" style="stop-color:#d0d0d0;stop-opacity:1" />
      <stop offset="100%" style="stop-color:#b8b8b8;stop-opacity:1" />
    </linearGradient>
    
    <!-- Gradient for wings -->
    <linearGradient id="wingGradient" x1="0%" y1="0%" x2="100%" y2="0%">
      <stop offset="0%" style="stop-color:#d8d8d8;stop-opacity:1" />
      <stop offset="50%" style="stop-color:#c0c0c0;stop-opacity:1" />
      <stop offset="100%" style="stop-color:#a8a8a8;stop-opacity:1" />
    </linearGradient>
    
    <!-- Gradient for engine pods -->
    <radialGradient id="podGradient" cx="50%" cy="50%">
      <stop offset="0%" style="stop-color:#555555;stop-opacity:1" />
      <stop offset="100%" style="stop-color:#333333;stop-opacity:1" />
    </radialGradient>
    
    <!-- Gradient for exhaust -->
    <radialGradient id="exhaustGradient" cx="50%" cy="0%">
      <stop offset="0%" style="stop-color:#888888;stop-opacity:0.8" />
      <stop offset="50%" style="stop-color:#666666;stop-opacity:0.6" />
      <stop offset="100%" style="stop-color:#444444;stop-opacity:0.3" />
    </radialGradient>
  </defs>
  
  <!-- Main body (triangular/arrow shape) with gradient -->
  <path d="M 30 3 L 28 12 L 24 18 L 24 28 L 28 36 L 30 42 L 32 36 L 36 28 L 36 18 L 32 12 Z" 
        fill="url(#bodyGradient)" stroke="#888888" stroke-width="1.2"/>
  
  <!-- Body highlight (top section) -->
  <path d="M 30 3 L 28 12 L 24 18 L 30 18 L 32 12 Z" 
        fill="#f0f0f0" opacity="0.6"/>
  
  <!-- Body shadow (bottom section) -->
  <path d="M 30 42 L 32 36 L 36 28 L 36 18 L 32 12 L 30 18 L 28 36 Z" 
        fill="#a0a0a0" opacity="0.3"/>
  
  <!-- Damage holes in fuselage -->
  <circle cx="28" cy="30" r="2.5" fill="#1a1a1a" opacity="0.8"/>
  <ellipse cx="32" cy="20" rx="1.5" ry="2" fill="#1a1a1a" opacity="0.7"/>
  <ellipse cx="26" cy="32" rx="1" ry="1.5" fill="#1a1a1a" opacity="0.6"/>
  
  <!-- Cracks in fuselage -->
  <path d="M 26 22 L 28 25 L 26 28" stroke="#333333" stroke-width="1.5" fill="none" stroke-linecap="round"/>
  <path d="M 34 24 L 36 27" stroke="#333333" stroke-width="1.5" fill="none" stroke-linecap="round"/>
  <path d="M 24 36 L 26 38" stroke="#333333" stroke-width="1.5" fill="none" stroke-linecap="round"/>
  
  <!-- Structural panels on body (damaged) -->
  <path d="M 28 12 L 24 18 L 24 22 L 28 20 Z" fill="#b8b8b8" opacity="0.4"/>
  <path d="M 32 12 L 36 18 L 36 22 L 32 20 Z" fill="#b8b8b8" opacity="0.4"/>
  <path d="M 24 22 L 24 28 L 28 26 L 28 20 Z" fill="#c8c8c8" opacity="0.3"/>
  <path d="M 36 22 L 36 28 L 32 26 L 32 20 Z" fill="#c8c8c8" opacity="0.3"/>
  
  <!-- Panel lines/seams -->
  <line x1="30" y1="12" x2="30" y2="18" stroke="#999999" stroke-width="0.5" opacity="0.5"/>
  <line x1="26" y1="20" x2="26" y2="28" stroke="#999999" stroke-width="0.4" opacity="0.4"/>
  <line x1="34" y1="20" x2="34" y2="28" stroke="#999999" stroke-width="0.4" opacity="0.4"/>
  <line x1="24" y1="25" x2="36" y2="25" stroke="#999999" stroke-width="0.3" opacity="0.3"/>
  
  <!-- Nose cone tip with detailed antenna -->
  <circle cx="30" cy="3" r="1.2" fill="#777777" stroke="#555555" stroke-width="0.3"/>
  <circle cx="30" cy="3" r="0.6" fill="#999999"/>
  <line x1="30" y1="3" x2="30" y2="5.5" stroke="#666666" stroke-width="0.6"/>
  <line x1="30" y1="3" x2="29.5" y2="4.5" stroke="#666666" stroke-width="0.4"/>
  <line x1="30" y1="3" x2="30.5" y2="4.5" stroke="#666666" stroke-width="0.4"/>
  <circle cx="30" cy="5.5" r="0.4" fill="#666666"/>
  
  <!-- Detailed cockpit window (cracked) -->
  <ellipse cx="30" cy="15" rx="4.5" ry="3.5" fill="#0a0a0a" stroke="#000000" stroke-width="0.8"/>
  <ellipse cx="30" cy="15" rx="4" ry="3" fill="#1a1a1a" stroke="#222222" stroke-width="0.3"/>
  
  <!-- Cockpit frame (outer) -->
  <ellipse cx="30" cy="15" rx="4.5" ry="3.5" fill="none" stroke="#666666" stroke-width="0.5" opacity="0.6"/>
  
  <!-- Cockpit crack -->
  <path d="M 30 12.5 L 30 17.5" stroke="#ff6b35" stroke-width="0.8" opacity="0.6"/>
  <path d="M 28 14.5 L 32 14.5" stroke="#ff6b35" stroke-width="0.6" opacity="0.5"/>
  
  <!-- Vertical lines inside cockpit (damaged) -->
  <line x1="27" y1="12.5" x2="27" y2="17.5" stroke="#333333" stroke-width="0.6"/>
  <line x1="28.5" y1="12.5" x2="28.5" y2="17.5" stroke="#333333" stroke-width="0.6"/>
  <line x1="30" y1="12.5" x2="30" y2="17.5" stroke="#333333" stroke-width="0.6"/>
  <line x1="31.5" y1="12.5" x2="31.5" y2="17.5" stroke="#333333" stroke-width="0.6"/>
  <line x1="33" y1="12.5" x2="33" y2="17.5" stroke="#333333" stroke-width="0.6"/>
  
  <!-- Small dots/rivets on main body (some missing/damaged) -->
  <!-- Top section -->
  <circle cx="26" cy="19" r="0.9" fill="#666666" stroke="#555555" stroke-width="0.2"/>
  <circle cx="34" cy="19" r="0.9" fill="#666666" stroke="#555555" stroke-width="0.2"/>
  <circle cx="27.5" cy="21" r="0.7" fill="#666666" stroke="#555555" stroke-width="0.15"/>
  <!-- Missing rivet at 32.5, 21 -->
  
  <!-- Middle section -->
  <circle cx="26" cy="24" r="0.9" fill="#666666" stroke="#555555" stroke-width="0.2"/>
  <!-- Missing rivet at 34, 24 -->
  <circle cx="27" cy="26" r="0.8" fill="#666666" stroke="#555555" stroke-width="0.2"/>
  <circle cx="33" cy="26" r="0.8" fill="#666666" stroke="#555555" stroke-width="0.2"/>
  <circle cx="27.5" cy="28" r="0.7" fill="#666666" stroke="#555555" stroke-width="0.15"/>
  <circle cx="32.5" cy="28" r="0.7" fill="#666666" stroke="#555555" stroke-width="0.15"/>
  
  <!-- Lower section -->
  <circle cx="26" cy="30" r="0.9" fill="#666666" stroke="#555555" stroke-width="0.2"/>
  <circle cx="34" cy="30" r="0.9" fill="#666666" stroke="#555555" stroke-width="0.2"/>
  <circle cx="27" cy="32" r="0.8" fill="#666666" stroke="#555555" stroke-width="0.2"/>
  <!-- Missing rivet at 33, 32 -->
  
  <!-- Rivet highlights (fewer due to damage) -->
  <circle cx="26" cy="19" r="0.4" fill="#888888" opacity="0.6"/>
  <circle cx="26" cy="24" r="0.4" fill="#888888" opacity="0.6"/>
  
  <!-- Main wings (delta-wing design with damage) -->
  <path d="M 24 18 L 15 24 L 15 28 L 24 28" fill="url(#wingGradient)" stroke="#666666" stroke-width="1.2"/>
  <!-- Right wing partially missing -->
  <path d="M 36 18 L 45 24 L 42 26 L 36 26" fill="url(#wingGradient)" stroke="#666666" stroke-width="1.2"/>
  <path d="M 36 26 L 40 28 L 36 28" fill="url(#wingGradient)" stroke="#666666" stroke-width="1.2"/>
  
  <!-- Wing damage - missing chunk on right wing -->
  <path d="M 42 26 L 45 28 L 42 30" fill="#1a1a1a" opacity="0.7"/>
  
  <!-- Wing highlights -->
  <path d="M 24 18 L 18 22 L 18 24 L 24 24" fill="#e0e0e0" opacity="0.5"/>
  <path d="M 36 18 L 40 22 L 40 24 L 36 24" fill="#e0e0e0" opacity="0.5"/>
  
  <!-- Wing shadows -->
  <path d="M 15 24 L 15 28 L 18 26 L 18 24" fill="#999999" opacity="0.4"/>
  
  <!-- Wing structural lines -->
  <line x1="20" y1="20" x2="18" y2="24" stroke="#888888" stroke-width="0.4" opacity="0.5"/>
  <line x1="20" y1="24" x2="18" y2="26" stroke="#888888" stroke-width="0.4" opacity="0.5"/>
  <line x1="40" y1="20" x2="40" y2="24" stroke="#888888" stroke-width="0.4" opacity="0.5"/>
  
  <!-- Wing tips (left intact, right damaged) -->
  <path d="M 15 24 L 12 26 L 15 28" fill="#999999" stroke="#555555" stroke-width="1"/>
  <ellipse cx="42" cy="26" rx="1.5" ry="1" fill="#999999" opacity="0.6"/>
  
  <!-- Wing tip highlights -->
  <line x1="13.5" y1="25.5" x2="14.5" y2="25.5" stroke="#aaaaaa" stroke-width="0.3"/>
  
  <!-- Lower wing pods/nacelles (left damaged, right severely damaged) -->
  <ellipse cx="20" cy="38" rx="3.2" ry="4.5" fill="url(#podGradient)" stroke="#222222" stroke-width="1.2" opacity="0.8"/>
  <ellipse cx="40" cy="38" rx="2.5" ry="3.5" fill="url(#podGradient)" stroke="#222222" stroke-width="1.2" opacity="0.5"/>
  
  <!-- Damage on left pod -->
  <ellipse cx="19" cy="39" rx="1" ry="1.5" fill="#1a1a1a" opacity="0.6"/>
  
  <!-- Pod highlights -->
  <ellipse cx="20" cy="36" rx="2" ry="2.5" fill="#666666" opacity="0.4"/>
  <ellipse cx="40" cy="36" rx="1.5" ry="2" fill="#666666" opacity="0.3"/>
  
  <!-- Pod shadows -->
  <ellipse cx="20" cy="40" rx="2.5" ry="3" fill="#222222" opacity="0.5"/>
  <ellipse cx="40" cy="40" rx="2" ry="2.5" fill="#222222" opacity="0.4"/>
  
  <!-- Engine details (damaged) -->
  <!-- Left pod -->
  <line x1="20" y1="34" x2="20" y2="42" stroke="#111111" stroke-width="1"/>
  <line x1="18.2" y1="35" x2="18.2" y2="41" stroke="#222222" stroke-width="0.7"/>
  <line x1="21.8" y1="35" x2="21.8" y2="41" stroke="#222222" stroke-width="0.7"/>
  <line x1="17.5" y1="36.5" x2="17.5" y2="39.5" stroke="#333333" stroke-width="0.5"/>
  <line x1="22.5" y1="36.5" x2="22.5" y2="39.5" stroke="#333333" stroke-width="0.5"/>
  
  <!-- Right pod (severely damaged) -->
  <line x1="40" y1="35" x2="40" y2="41" stroke="#111111" stroke-width="0.8" opacity="0.6"/>
  <line x1="38.2" y1="36" x2="38.2" y2="40" stroke="#222222" stroke-width="0.6" opacity="0.5"/>
  <line x1="41.8" y1="36" x2="41.8" y2="40" stroke="#222222" stroke-width="0.6" opacity="0.5"/>
  
  <!-- Pod structural rings -->
  <ellipse cx="20" cy="36" rx="3.5" ry="1" fill="#444444" opacity="0.3"/>
  <ellipse cx="20" cy="40" rx="3.5" ry="1" fill="#222222" opacity="0.4"/>
  <ellipse cx="40" cy="36" rx="2.5" ry="0.8" fill="#444444" opacity="0.2"/>
  <ellipse cx="40" cy="40" rx="2.5" ry="0.8" fill="#222222" opacity="0.3"/>
  
  <!-- Central engine (damaged - flickering) -->
  <ellipse cx="30" cy="45" rx="5" ry="4" fill="#222222" stroke="#111111" stroke-width="1.2"/>
  <ellipse cx="30" cy="45" rx="4.5" ry="3.5" fill="#333333" stroke="#1a1a1a" stroke-width="0.8"/>
  
  <!-- Engine inner ring -->
  <ellipse cx="30" cy="45" rx="3.5" ry="2.5" fill="#1a1a1a" opacity="0.8"/>
  
  <!-- Engine damage hole -->
  <ellipse cx="30" cy="45" rx="1.5" ry="1" fill="#1a1a1a" opacity="0.8"/>
  
  <!-- Vertical lines inside central engine (damaged) -->
  <line x1="27.5" y1="42" x2="27.5" y2="48" stroke="#111111" stroke-width="0.9"/>
  <line x1="30" y1="42" x2="30" y2="48" stroke="#111111" stroke-width="0.9"/>
  <line x1="32.5" y1="42" x2="32.5" y2="48" stroke="#111111" stroke-width="0.9"/>
  <line x1="26" y1="43.5" x2="26" y2="46.5" stroke="#222222" stroke-width="0.6"/>
  <line x1="28.5" y1="43.5" x2="28.5" y2="46.5" stroke="#222222" stroke-width="0.6"/>
  <!-- Missing lines at 31.5 and 34 -->
  
  <!-- Engine structural details -->
  <ellipse cx="30" cy="43" rx="4.5" ry="1" fill="#444444" opacity="0.4"/>
  <ellipse cx="30" cy="47" rx="4.5" ry="1" fill="#111111" opacity="0.6"/>
  
  <!-- Exhaust plumes (damaged - reduced) -->
  <!-- Central engine exhaust - reduced layers -->
  <ellipse cx="30" cy="50" rx="4" ry="2.5" fill="url(#exhaustGradient)" opacity="0.6"/>
  <ellipse cx="30" cy="52" rx="4.5" ry="3" fill="url(#exhaustGradient)" opacity="0.5"/>
  
  <!-- Swirling exhaust paths (reduced) -->
  <path d="M 26 48 Q 27 50 26 52 Q 29 51 28 53" 
        stroke="#666666" stroke-width="1.5" fill="none" opacity="0.6" stroke-linecap="round"/>
  <path d="M 30 48 Q 31 50 30 52 Q 33 51 32 53" 
        stroke="#666666" stroke-width="1.5" fill="none" opacity="0.6" stroke-linecap="round"/>
  <path d="M 34 48 Q 35 50 34 52 Q 37 51 36 53" 
        stroke="#666666" stroke-width="1.5" fill="none" opacity="0.6" stroke-linecap="round"/>
  
  <!-- Left engine exhaust (damaged) -->
  <ellipse cx="20" cy="44" rx="2" ry="1.5" fill="url(#exhaustGradient)" opacity="0.5"/>
  <ellipse cx="20" cy="46" rx="2.5" ry="2" fill="url(#exhaustGradient)" opacity="0.4"/>
  
  <path d="M 18 43 Q 19 45 18 47 Q 21 46 20 48" 
        stroke="#666666" stroke-width="1.2" fill="none" opacity="0.5" stroke-linecap="round"/>
  <path d="M 20 43 Q 21 45 20 47 Q 23 46 22 48" 
        stroke="#666666" stroke-width="1.2" fill="none" opacity="0.5" stroke-linecap="round"/>
  
  <!-- Right engine destroyed (only remnants) -->
  <ellipse cx="40" cy="44" rx="1.5" ry="1" fill="#333333" opacity="0.3"/>
  <ellipse cx="39" cy="46" rx="1" ry="0.8" fill="#ff6b35" opacity="0.2"/>
  
  <!-- Smoke/plume from damaged right engine -->
  <ellipse cx="40" cy="42" rx="2" ry="3" fill="#333333" opacity="0.4"/>
  <ellipse cx="39" cy="40" rx="1.5" ry="2" fill="#444444" opacity="0.3"/>
  <ellipse cx="38" cy="38" rx="1" ry="1.5" fill="#555555" opacity="0.2"/>
  
  <!-- Additional battle damage - scorch marks -->
  <ellipse cx="28" cy="28" rx="3" ry="2" fill="#222222" opacity="0.3" transform="rotate(-20 28 28)"/>
  <ellipse cx="35" cy="30" rx="2.5" ry="1.5" fill="#222222" opacity="0.25" transform="rotate(15 35 30)"/>
  
  <!-- Additional damage lines/scratches -->
  <path d="M 28 15 L 30 18" stroke="#444444" stroke-width="0.8" opacity="0.6"/>
  <path d="M 32 20 L 34 23" stroke="#444444" stroke-width="0.8" opacity="0.6"/>
  
  <!-- Additional detailed shading for depth -->
  <path d="M 30 3 L 28 12 L 24 18 L 24 28 L 28 36 L 30 42" 
        fill="none" stroke="#aaaaaa" stroke-width="0.6" opacity="0.4"/>
  <path d="M 30 3 L 32 12 L 36 18 L 36 28 L 32 36 L 30 42" 
        fill="none" stroke="#cccccc" stroke-width="0.5" opacity="0.3"/>
  
  <!-- Edge highlights -->
  <path d="M 30 3 L 28 12 L 24 18" 
        fill="none" stroke="#e8e8e8" stroke-width="0.8" opacity="0.5"/>
  <path d="M 30 3 L 32 12 L 36 18" 
        fill="none" stroke="#e8e8e8" stroke-width="0.8" opacity="0.5"/>
</svg>



















