<svg width="60" height="60" viewBox="0 0 60 60" xmlns="http://www.w3.org/2000/svg">
  <!-- Checkst Du theme ship - Gaming/Trends inspired spaceship with purple and RGB accents -->
  
  <!-- Main fuselage body (purple) -->
  <path d="M 30 5 L 26 18 L 22 22 L 22 32 L 26 36 L 30 42 L 34 36 L 38 32 L 38 22 L 34 18 Z" 
        fill="#9b59b6" stroke="#8e44ad" stroke-width="1.5"/>
  
  <!-- RGB gaming stripes on body -->
  <rect x="24" y="20" width="12" height="1.5" fill="#ff3333" rx="0.5"/>
  <rect x="24" y="22.5" width="12" height="1.5" fill="#33ff33" rx="0.5"/>
  <rect x="24" y="25" width="12" height="1.5" fill="#3333ff" rx="0.5"/>
  <rect x="24" y="27.5" width="12" height="1.5" fill="#ffff33" rx="0.5"/>
  <rect x="24" y="30" width="12" height="1.5" fill="#ff33ff" rx="0.5"/>
  <rect x="24" y="32.5" width="12" height="1.5" fill="#33ffff" rx="0.5"/>
  
  <!-- Gaming-style cockpit (neon purple glow) -->
  <ellipse cx="30" cy="10" rx="4" ry="3" fill="#1a1a1a" stroke="#9b59b6" stroke-width="1"/>
  <ellipse cx="30" cy="10" rx="3.5" ry="2.5" fill="#8e44ad" opacity="0.4"/>
  <ellipse cx="30" cy="10" rx="2.5" ry="2" fill="#9b59b6" opacity="0.6"/>
  <ellipse cx="30" cy="9.5" rx="1.5" ry="1" fill="#bb77dd" opacity="0.8"/>
  <circle cx="30" cy="9.5" r="0.8" fill="#ffffff" opacity="0.9"/>
  
  <!-- Gaming RGB accent panels on sides -->
  <rect x="22" y="24" width="2" height="8" fill="#ff3333" opacity="0.7" rx="0.5"/>
  <rect x="36" y="24" width="2" height="8" fill="#3333ff" opacity="0.7" rx="0.5"/>
  
  <!-- Main wings (purple with RGB accents) -->
  <path d="M 22 22 L 10 26 L 10 30 L 22 32" fill="#9b59b6" stroke="#8e44ad" stroke-width="1.5"/>
  <path d="M 38 22 L 50 26 L 50 30 L 38 32" fill="#9b59b6" stroke="#8e44ad" stroke-width="1.5"/>
  
  <!-- RGB wing panels -->
  <rect x="12" y="27" width="8" height="1" fill="#ff3333"/>
  <rect x="12" y="28.5" width="8" height="1" fill="#33ff33"/>
  <rect x="12" y="30" width="8" height="1" fill="#3333ff"/>
  
  <rect x="40" y="27" width="8" height="1" fill="#ff33ff"/>
  <rect x="40" y="28.5" width="8" height="1" fill="#33ffff"/>
  <rect x="40" y="30" width="8" height="1" fill="#ffff33"/>
  
  <!-- Wing extensions (neon purple) -->
  <rect x="8" y="27" width="4" height="4" fill="#9b59b6" stroke="#8e44ad" stroke-width="0.5"/>
  <rect x="48" y="27" width="4" height="4" fill="#9b59b6" stroke="#8e44ad" stroke-width="0.5"/>
  
  <!-- RGB lights on wing tips -->
  <circle cx="8" cy="29" r="1.2" fill="#ff3333" opacity="0.9"/>
  <circle cx="52" cy="29" r="1.2" fill="#3333ff" opacity="0.9"/>
  
  <!-- Lower engine nacelles/pods (purple) -->
  <ellipse cx="18" cy="38" rx="3" ry="5" fill="#9b59b6" stroke="#8e44ad" stroke-width="0.5"/>
  <ellipse cx="42" cy="38" rx="3" ry="5" fill="#9b59b6" stroke="#8e44ad" stroke-width="0.5"/>
  
  <!-- RGB accent bands on pods -->
  <rect x="16" y="40" width="1.3" height="2.5" fill="#ff3333" rx="0.5"/>
  <rect x="17.3" y="40" width="1.3" height="2.5" fill="#33ff33" rx="0.5"/>
  <rect x="18.6" y="40" width="1.3" height="2.5" fill="#3333ff" rx="0.5"/>
  <rect x="19.9" y="40" width="0.1" height="2.5" fill="#ffff33" rx="0.5"/>
  
  <rect x="40" y="40" width="1.3" height="2.5" fill="#ff33ff" rx="0.5"/>
  <rect x="41.3" y="40" width="1.3" height="2.5" fill="#33ffff" rx="0.5"/>
  <rect x="42.6" y="40" width="1.3" height="2.5" fill="#ff6b35" rx="0.5"/>
  <rect x="43.9" y="40" width="0.1" height="2.5" fill="#00cc88" rx="0.5"/>
  
  <!-- Central engine (purple glow) -->
  <ellipse cx="30" cy="46" rx="4" ry="3" fill="#333333"/>
  <ellipse cx="30" cy="50" rx="5" ry="4" fill="#9b59b6" opacity="0.9"/>
  <ellipse cx="30" cy="52" rx="4" ry="3" fill="#8e44ad" opacity="0.8"/>
  <ellipse cx="30" cy="54" rx="3" ry="2" fill="#bb77dd" opacity="0.7"/>
  <ellipse cx="30" cy="55.5" rx="2" ry="1.5" fill="#dd99ff" opacity="0.6"/>
  
  <!-- Side engines (purple glow) -->
  <ellipse cx="18" cy="44" rx="2.5" ry="2" fill="#333333"/>
  <ellipse cx="18" cy="47" rx="3" ry="2.5" fill="#9b59b6" opacity="0.9"/>
  <ellipse cx="18" cy="49" rx="2.5" ry="2" fill="#8e44ad" opacity="0.8"/>
  <ellipse cx="18" cy="50.5" rx="2" ry="1.5" fill="#bb77dd" opacity="0.7"/>
  <ellipse cx="18" cy="52" rx="1.5" ry="1" fill="#dd99ff" opacity="0.6"/>
  
  <ellipse cx="42" cy="44" rx="2.5" ry="2" fill="#333333"/>
  <ellipse cx="42" cy="47" rx="3" ry="2.5" fill="#9b59b6" opacity="0.9"/>
  <ellipse cx="42" cy="49" rx="2.5" ry="2" fill="#8e44ad" opacity="0.8"/>
  <ellipse cx="42" cy="50.5" rx="2" ry="1.5" fill="#bb77dd" opacity="0.7"/>
  <ellipse cx="42" cy="52" rx="1.5" ry="1" fill="#dd99ff" opacity="0.6"/>
  
  <!-- Gaming-style central core (RGB rings) -->
  <circle cx="30" cy="27" r="4" fill="none" stroke="#ff3333" stroke-width="0.8" opacity="0.6"/>
  <circle cx="30" cy="27" r="3" fill="none" stroke="#33ff33" stroke-width="0.8" opacity="0.6"/>
  <circle cx="30" cy="27" r="2" fill="none" stroke="#3333ff" stroke-width="0.8" opacity="0.6"/>
  <circle cx="30" cy="27" r="1.5" fill="#9b59b6" opacity="0.5"/>
  <circle cx="30" cy="27" r="1" fill="#bb77dd" opacity="0.7"/>
  
  <!-- Additional RGB gaming accents -->
  <rect x="23" y="18" width="2" height="2" fill="#ff3333" opacity="0.8" rx="0.5"/>
  <rect x="35" y="18" width="2" height="2" fill="#3333ff" opacity="0.8" rx="0.5"/>
  <rect x="23" y="36" width="2" height="2" fill="#33ff33" opacity="0.8" rx="0.5"/>
  <rect x="35" y="36" width="2" height="2" fill="#ffff33" opacity="0.8" rx="0.5"/>
  
  <!-- Neon purple highlights -->
  <line x1="22" y1="22" x2="22" y2="32" stroke="#bb77dd" stroke-width="0.8" opacity="0.5"/>
  <line x1="38" y1="22" x2="38" y2="32" stroke="#bb77dd" stroke-width="0.8" opacity="0.5"/>
  <line x1="30" y1="16" x2="30" y2="38" stroke="#bb77dd" stroke-width="0.5" opacity="0.4"/>
  
  <!-- Wing edge highlights (neon purple) -->
  <line x1="10" y1="26" x2="22" y2="22" stroke="#bb77dd" stroke-width="1" opacity="0.6"/>
  <line x1="10" y1="30" x2="22" y2="32" stroke="#bb77dd" stroke-width="1" opacity="0.6"/>
  <line x1="50" y1="26" x2="38" y2="22" stroke="#bb77dd" stroke-width="1" opacity="0.6"/>
  <line x1="50" y1="30" x2="38" y2="32" stroke="#bb77dd" stroke-width="1" opacity="0.6"/>
  
  <!-- Sparkle/star accents (trendy ✨) -->
  <path d="M 25 15 L 25.5 16 L 27 16 L 25.5 16.5 L 26 18 L 25 17 L 24 18 L 24.5 16.5 L 23 16 L 24.5 16 Z" 
        fill="#ffff33" opacity="0.8"/>
  <path d="M 35 15 L 35.5 16 L 37 16 L 35.5 16.5 L 36 18 L 35 17 L 34 18 L 34.5 16.5 L 33 16 L 34.5 16 Z" 
        fill="#ff33ff" opacity="0.8"/>
  <path d="M 20 28 L 20.5 29 L 22 29 L 20.5 29.5 L 21 31 L 20 30 L 19 31 L 19.5 29.5 L 18 29 L 19.5 29 Z" 
        fill="#33ffff" opacity="0.7"/>
  <path d="M 40 28 L 40.5 29 L 42 29 L 40.5 29.5 L 41 31 L 40 30 L 39 31 L 39.5 29.5 L 38 29 L 39.5 29 Z" 
        fill="#ff6b35" opacity="0.7"/>
</svg>






