<svg width="60" height="60" viewBox="0 0 60 60" xmlns="http://www.w3.org/2000/svg">
  <!-- Daily life theme ship - With colorful sparkles/sprinkles distributed around -->
  
  <!-- Main fuselage body (gray) -->
  <path d="M 30 5 L 26 18 L 22 22 L 22 32 L 26 36 L 30 42 L 34 36 L 38 32 L 38 22 L 34 18 Z" 
        fill="#95a5a6" stroke="#7f8c8d" stroke-width="1"/>
  
  <!-- Sleepy eyes cockpit (closed eyes) -->
  <ellipse cx="27" cy="12" rx="2" ry="1.5" fill="#1a1a1a" stroke="#000000" stroke-width="0.5"/>
  <ellipse cx="33" cy="12" rx="2" ry="1.5" fill="#1a1a1a" stroke="#000000" stroke-width="0.5"/>
  <!-- Sleep Z's -->
  <path d="M 28 10 L 29 8 L 30 10" fill="none" stroke="#7f8c8d" stroke-width="1" stroke-linecap="round"/>
  <path d="M 32 10 L 33 8 L 34 10" fill="none" stroke="#7f8c8d" stroke-width="1" stroke-linecap="round"/>
  
  <!-- Alarm clock elements on body -->
  <circle cx="24" cy="24" r="3" fill="#7f8c8d" stroke="#6a7a7b" stroke-width="0.5"/>
  <circle cx="36" cy="24" r="3" fill="#7f8c8d" stroke="#6a7a7b" stroke-width="0.5"/>
  <!-- Clock hands -->
  <line x1="24" y1="24" x2="24" y2="22" stroke="#1a1a1a" stroke-width="1"/>
  <line x1="24" y1="24" x2="25.5" y2="24" stroke="#1a1a1a" stroke-width="1"/>
  <line x1="36" y1="24" x2="36" y2="22" stroke="#1a1a1a" stroke-width="1"/>
  <line x1="36" y1="24" x2="37.5" y2="24" stroke="#1a1a1a" stroke-width="1"/>
  
  <!-- Coffee cup elements -->
  <path d="M 25 28 L 25 31 L 27 31 L 27 28 Z" fill="#6a7a7b" stroke="#5a6a6b" stroke-width="0.5"/>
  <path d="M 33 28 L 33 31 L 35 31 L 35 28 Z" fill="#6a7a7b" stroke="#5a6a6b" stroke-width="0.5"/>
  <!-- Coffee steam -->
  <path d="M 26 28 Q 26.5 26, 27 28" fill="none" stroke="#7f8c8d" stroke-width="0.5" stroke-linecap="round"/>
  <path d="M 34 28 Q 34.5 26, 35 28" fill="none" stroke="#7f8c8d" stroke-width="0.5" stroke-linecap="round"/>
  
  <!-- Main wings (gray, simple) -->
  <path d="M 22 22 L 10 26 L 10 30 L 22 32" fill="#95a5a6" stroke="#7f8c8d" stroke-width="1"/>
  <path d="M 38 22 L 50 26 L 50 30 L 38 32" fill="#95a5a6" stroke="#7f8c8d" stroke-width="1"/>
  
  <!-- Wing extensions -->
  <rect x="8" y="27" width="4" height="4" fill="#95a5a6" stroke="#7f8c8d" stroke-width="0.5"/>
  <rect x="48" y="27" width="4" height="4" fill="#95a5a6" stroke="#7f8c8d" stroke-width="0.5"/>
  
  <!-- Lower engine nacelles/pods (gray) -->
  <ellipse cx="18" cy="38" rx="3" ry="5" fill="#95a5a6" stroke="#7f8c8d" stroke-width="0.5"/>
  <ellipse cx="42" cy="38" rx="3" ry="5" fill="#95a5a6" stroke="#7f8c8d" stroke-width="0.5"/>
  
  <!-- Gray accent bands on pods -->
  <rect x="16" y="40" width="4" height="2.5" fill="#7f8c8d" rx="1"/>
  <rect x="40" y="40" width="4" height="2.5" fill="#7f8c8d" rx="1"/>
  
  <!-- Central engine (gray glow) -->
  <ellipse cx="30" cy="46" rx="4" ry="3" fill="#333333"/>
  <ellipse cx="30" cy="50" rx="5" ry="4" fill="#95a5a6" opacity="0.9"/>
  <ellipse cx="30" cy="52" rx="4" ry="3" fill="#7f8c8d" opacity="0.7"/>
  <ellipse cx="30" cy="54" rx="3" ry="2" fill="#6a7a7b" opacity="0.5"/>
  
  <!-- Side engines (gray glow) -->
  <ellipse cx="18" cy="44" rx="2.5" ry="2" fill="#333333"/>
  <ellipse cx="18" cy="47" rx="3" ry="2.5" fill="#95a5a6" opacity="0.9"/>
  <ellipse cx="18" cy="49" rx="2.5" ry="2" fill="#7f8c8d" opacity="0.7"/>
  <ellipse cx="18" cy="50.5" rx="2" ry="1.5" fill="#6a7a7b" opacity="0.5"/>
  
  <ellipse cx="42" cy="44" rx="2.5" ry="2" fill="#333333"/>
  <ellipse cx="42" cy="47" rx="3" ry="2.5" fill="#95a5a6" opacity="0.9"/>
  <ellipse cx="42" cy="49" rx="2.5" ry="2" fill="#7f8c8d" opacity="0.7"/>
  <ellipse cx="42" cy="50.5" rx="2" ry="1.5" fill="#6a7a7b" opacity="0.5"/>
  
  <!-- Additional structural details -->
  <line x1="22" y1="22" x2="22" y2="32" stroke="#7f8c8d" stroke-width="0.5" opacity="0.5"/>
  <line x1="38" y1="22" x2="38" y2="32" stroke="#7f8c8d" stroke-width="0.5" opacity="0.5"/>
  
  <!-- Colorful sparkles/sprinkles distributed around (same pattern as other ships) -->
  <circle cx="10" cy="20" r="1.2" fill="#ff3333" opacity="0.9"/>
  <circle cx="8" cy="25" r="1" fill="#ff5555" opacity="0.8"/>
  <circle cx="11" cy="35" r="1.1" fill="#ff4444" opacity="0.85"/>
  <circle cx="9" cy="40" r="0.9" fill="#ff6666" opacity="0.75"/>
  <circle cx="7" cy="22" r="1" fill="#3366ff" opacity="0.9"/>
  <circle cx="10" cy="28" r="1.2" fill="#4488ff" opacity="0.85"/>
  <circle cx="8" cy="32" r="0.9" fill="#5599ff" opacity="0.8"/>
  <circle cx="11" cy="38" r="1.1" fill="#3377ff" opacity="0.9"/>
  <circle cx="9" cy="18" r="1.1" fill="#33ff66" opacity="0.85"/>
  <circle cx="7" cy="27" r="0.9" fill="#44ff88" opacity="0.8"/>
  <circle cx="10" cy="33" r="1" fill="#55ff99" opacity="0.9"/>
  <circle cx="8" cy="42" r="1.2" fill="#33ff77" opacity="0.85"/>
  <circle cx="11" cy="23" r="0.9" fill="#ffff33" opacity="0.9"/>
  <circle cx="9" cy="30" r="1.1" fill="#ffff55" opacity="0.85"/>
  <circle cx="7" cy="37" r="1" fill="#ffff44" opacity="0.8"/>
  <circle cx="8" cy="24" r="1" fill="#ff33ff" opacity="0.85"/>
  <circle cx="10" cy="31" r="1.1" fill="#ff55ff" opacity="0.9"/>
  <circle cx="9" cy="39" r="0.9" fill="#ff44ff" opacity="0.8"/>
  <circle cx="7" cy="26" r="1.1" fill="#33ffff" opacity="0.9"/>
  <circle cx="11" cy="34" r="0.9" fill="#44ffff" opacity="0.85"/>
  <circle cx="8" cy="41" r="1" fill="#55ffff" opacity="0.8"/>
  <circle cx="9" cy="21" r="1" fill="#ff8833" opacity="0.85"/>
  <circle cx="7" cy="29" r="1.2" fill="#ff9944" opacity="0.9"/>
  <circle cx="10" cy="36" r="0.9" fill="#ffaa55" opacity="0.8"/>
  
  <circle cx="50" cy="20" r="1.2" fill="#ff3333" opacity="0.9"/>
  <circle cx="52" cy="25" r="1" fill="#ff5555" opacity="0.8"/>
  <circle cx="49" cy="35" r="1.1" fill="#ff4444" opacity="0.85"/>
  <circle cx="51" cy="40" r="0.9" fill="#ff6666" opacity="0.75"/>
  <circle cx="53" cy="22" r="1" fill="#3366ff" opacity="0.9"/>
  <circle cx="50" cy="28" r="1.2" fill="#4488ff" opacity="0.85"/>
  <circle cx="52" cy="32" r="0.9" fill="#5599ff" opacity="0.8"/>
  <circle cx="49" cy="38" r="1.1" fill="#3377ff" opacity="0.9"/>
  <circle cx="51" cy="18" r="1.1" fill="#33ff66" opacity="0.85"/>
  <circle cx="53" cy="27" r="0.9" fill="#44ff88" opacity="0.8"/>
  <circle cx="50" cy="33" r="1" fill="#55ff99" opacity="0.9"/>
  <circle cx="52" cy="42" r="1.2" fill="#33ff77" opacity="0.85"/>
  <circle cx="49" cy="23" r="0.9" fill="#ffff33" opacity="0.9"/>
  <circle cx="51" cy="30" r="1.1" fill="#ffff55" opacity="0.85"/>
  <circle cx="53" cy="37" r="1" fill="#ffff44" opacity="0.8"/>
  <circle cx="52" cy="24" r="1" fill="#ff33ff" opacity="0.85"/>
  <circle cx="50" cy="31" r="1.1" fill="#ff55ff" opacity="0.9"/>
  <circle cx="51" cy="39" r="0.9" fill="#ff44ff" opacity="0.8"/>
  <circle cx="53" cy="26" r="1.1" fill="#33ffff" opacity="0.9"/>
  <circle cx="49" cy="34" r="0.9" fill="#44ffff" opacity="0.85"/>
  <circle cx="52" cy="41" r="1" fill="#55ffff" opacity="0.8"/>
  <circle cx="51" cy="21" r="1" fill="#ff8833" opacity="0.85"/>
  <circle cx="53" cy="29" r="1.2" fill="#ff9944" opacity="0.9"/>
  <circle cx="50" cy="36" r="0.9" fill="#ffaa55" opacity="0.8"/>
  
  <circle cx="15" cy="8" r="1" fill="#ff3333" opacity="0.85"/>
  <circle cx="25" cy="3" r="1.1" fill="#3366ff" opacity="0.9"/>
  <circle cx="30" cy="2" r="1.2" fill="#33ff66" opacity="0.9"/>
  <circle cx="35" cy="3" r="1" fill="#ffff33" opacity="0.85"/>
  <circle cx="45" cy="8" r="1.1" fill="#ff33ff" opacity="0.9"/>
  <circle cx="20" cy="6" r="0.9" fill="#33ffff" opacity="0.8"/>
  <circle cx="40" cy="6" r="0.9" fill="#ff8833" opacity="0.8"/>
  <circle cx="28" cy="4" r="0.8" fill="#ff5555" opacity="0.75"/>
  <circle cx="32" cy="4" r="0.8" fill="#4488ff" opacity="0.75"/>
  
  <circle cx="15" cy="52" r="1" fill="#ff4444" opacity="0.85"/>
  <circle cx="25" cy="57" r="1.1" fill="#5599ff" opacity="0.9"/>
  <circle cx="30" cy="58" r="1.2" fill="#55ff99" opacity="0.9"/>
  <circle cx="35" cy="57" r="1" fill="#ffff55" opacity="0.85"/>
  <circle cx="45" cy="52" r="1.1" fill="#ff55ff" opacity="0.9"/>
  <circle cx="20" cy="54" r="0.9" fill="#55ffff" opacity="0.8"/>
  <circle cx="40" cy="54" r="0.9" fill="#ffaa55" opacity="0.8"/>
  <circle cx="28" cy="56" r="0.8" fill="#ff6666" opacity="0.75"/>
  <circle cx="32" cy="56" r="0.8" fill="#3377ff" opacity="0.75"/>
  
  <circle cx="4" cy="12" r="1" fill="#ff3333" opacity="0.85"/>
  <circle cx="3" cy="15" r="0.9" fill="#3366ff" opacity="0.8"/>
  <circle cx="5" cy="10" r="1.1" fill="#33ff66" opacity="0.9"/>
  <circle cx="2" cy="18" r="0.8" fill="#ffff33" opacity="0.75"/>
  
  <circle cx="56" cy="12" r="1" fill="#ff4444" opacity="0.85"/>
  <circle cx="57" cy="15" r="0.9" fill="#4488ff" opacity="0.8"/>
  <circle cx="55" cy="10" r="1.1" fill="#44ff88" opacity="0.9"/>
  <circle cx="58" cy="18" r="0.8" fill="#ffff44" opacity="0.75"/>
  
  <circle cx="4" cy="48" r="1" fill="#ff5555" opacity="0.85"/>
  <circle cx="3" cy="45" r="0.9" fill="#5599ff" opacity="0.8"/>
  <circle cx="5" cy="50" r="1.1" fill="#55ff99" opacity="0.9"/>
  <circle cx="2" cy="42" r="0.8" fill="#ffff55" opacity="0.75"/>
  
  <circle cx="56" cy="48" r="1" fill="#ff6666" opacity="0.85"/>
  <circle cx="57" cy="45" r="0.9" fill="#3377ff" opacity="0.8"/>
  <circle cx="55" cy="50" r="1.1" fill="#33ff77" opacity="0.9"/>
  <circle cx="58" cy="42" r="0.8" fill="#ffff66" opacity="0.75"/>
  
  <circle cx="6" cy="19" r="0.7" fill="#ff00ff" opacity="0.7"/>
  <circle cx="54" cy="19" r="0.7" fill="#00ffff" opacity="0.7"/>
  <circle cx="5" cy="28" r="0.8" fill="#ffff00" opacity="0.75"/>
  <circle cx="55" cy="28" r="0.8" fill="#00ff00" opacity="0.75"/>
  <circle cx="6" cy="43" r="0.7" fill="#ff0088" opacity="0.7"/>
  <circle cx="54" cy="43" r="0.7" fill="#0088ff" opacity="0.7"/>
  <circle cx="12" cy="5" r="0.7" fill="#ff3388" opacity="0.7"/>
  <circle cx="48" cy="5" r="0.7" fill="#3388ff" opacity="0.7"/>
  <circle cx="12" cy="55" r="0.7" fill="#88ff33" opacity="0.7"/>
  <circle cx="48" cy="55" r="0.7" fill="#ff8833" opacity="0.7"/>
  <circle cx="1" cy="30" r="0.6" fill="#ff33aa" opacity="0.65"/>
  <circle cx="59" cy="30" r="0.6" fill="#33aaff" opacity="0.65"/>
  <circle cx="30" cy="1" r="0.6" fill="#aaff33" opacity="0.65"/>
  <circle cx="30" cy="59" r="0.6" fill="#ffaa33" opacity="0.65"/>
</svg>



















