<svg width="60" height="60" viewBox="0 0 60 60" xmlns="http://www.w3.org/2000/svg">
  <!-- Futuristic spaceship - With colorful sparkles/sprinkles distributed around -->
  
  <!-- Main fuselage body (aerodynamic shape) -->
  <path d="M 30 4 L 26 16 L 22 22 L 22 32 L 26 38 L 30 44 L 34 38 L 38 32 L 38 22 L 34 16 Z" 
        fill="#4a90e2" stroke="#2d5a8a" stroke-width="1.5"/>
  
  <!-- Central body panel (raised section) -->
  <ellipse cx="30" cy="27" rx="8" ry="12" fill="#5a9ff2" stroke="#2d5a8a" stroke-width="1"/>
  
  <!-- Cockpit window (front - blue glow) -->
  <ellipse cx="30" cy="10" rx="4" ry="3" fill="#1a1a1a" stroke="#000000" stroke-width="0.5"/>
  <ellipse cx="30" cy="10" rx="3" ry="2" fill="#4a90e2" opacity="0.3"/>
  <ellipse cx="30" cy="9.5" rx="1.5" ry="1" fill="#7bb3f0" opacity="0.5"/>
  
  <!-- Cockpit frame -->
  <path d="M 30 7 L 26 9 L 26 12 L 30 13 L 34 12 L 34 9 Z" 
        fill="none" stroke="#2d5a8a" stroke-width="1"/>
  
  <!-- Main wings (swept back design) -->
  <path d="M 22 22 L 8 28 L 8 32 L 22 34" fill="#4a90e2" stroke="#2d5a8a" stroke-width="1.5"/>
  <path d="M 38 22 L 52 28 L 52 32 L 38 34" fill="#4a90e2" stroke="#2d5a8a" stroke-width="1.5"/>
  
  <!-- Wing tips (angled - dark blue) -->
  <path d="M 8 28 L 4 30 L 8 32" fill="#2d5a8a" stroke="#1a3a5f" stroke-width="1"/>
  <path d="M 52 28 L 56 30 L 52 32" fill="#2d5a8a" stroke="#1a3a5f" stroke-width="1"/>
  
  <!-- Wing panels/details (colorful) -->
  <rect x="12" y="28" width="6" height="4" fill="#ff6b35" stroke="#cc5500" stroke-width="0.5" rx="1"/>
  <rect x="42" y="28" width="6" height="4" fill="#ff6b35" stroke="#cc5500" stroke-width="0.5" rx="1"/>
  <rect x="13" y="29" width="4" height="2" fill="#ffaa00" opacity="0.7" rx="0.5"/>
  <rect x="43" y="29" width="4" height="2" fill="#ffaa00" opacity="0.7" rx="0.5"/>
  
  <!-- Wing extensions (rear) -->
  <path d="M 22 34 L 18 36 L 18 40 L 22 40" fill="#4a90e2" stroke="#2d5a8a" stroke-width="1"/>
  <path d="M 38 34 L 42 36 L 42 40 L 38 40" fill="#4a90e2" stroke="#2d5a8a" stroke-width="1"/>
  
  <!-- Side engine nacelles -->
  <ellipse cx="18" cy="40" rx="3" ry="5" fill="#4a90e2" stroke="#2d5a8a" stroke-width="1"/>
  <ellipse cx="42" cy="40" rx="3" ry="5" fill="#4a90e2" stroke="#2d5a8a" stroke-width="1"/>
  
  <!-- Engine nacelle details (dark blue) -->
  <ellipse cx="18" cy="38" rx="2" ry="3" fill="#2d5a8a" opacity="0.7"/>
  <ellipse cx="42" cy="38" rx="2" ry="3" fill="#2d5a8a" opacity="0.7"/>
  <rect x="16" y="42" width="4" height="2" fill="#1a3a5f" rx="1"/>
  <rect x="40" y="42" width="4" height="2" fill="#1a3a5f" rx="1"/>
  
  <!-- Central engine (main thruster) - ORANGE FIRE -->
  <ellipse cx="30" cy="46" rx="5" ry="4" fill="#333333" stroke="#1a1a1a" stroke-width="1"/>
  <ellipse cx="30" cy="50" rx="6" ry="5" fill="#ff6b35" opacity="0.9"/>
  <ellipse cx="30" cy="52" rx="5" ry="4" fill="#ff8c42" opacity="0.8"/>
  <ellipse cx="30" cy="54" rx="4" ry="3" fill="#ffaa00" opacity="0.7"/>
  <ellipse cx="30" cy="55.5" rx="3" ry="2" fill="#ffcc00" opacity="0.6"/>
  <ellipse cx="30" cy="56.5" rx="2" ry="1.5" fill="#ffff00" opacity="0.5"/>
  
  <!-- Side engines - ORANGE FIRE -->
  <ellipse cx="18" cy="45" rx="2.5" ry="2" fill="#333333"/>
  <ellipse cx="18" cy="48" rx="3" ry="2.5" fill="#ff6b35" opacity="0.9"/>
  <ellipse cx="18" cy="50" rx="2.5" ry="2" fill="#ff8c42" opacity="0.8"/>
  <ellipse cx="18" cy="51.5" rx="2" ry="1.5" fill="#ffaa00" opacity="0.7"/>
  <ellipse cx="18" cy="52.5" rx="1.5" ry="1" fill="#ffcc00" opacity="0.6"/>
  
  <ellipse cx="42" cy="45" rx="2.5" ry="2" fill="#333333"/>
  <ellipse cx="42" cy="48" rx="3" ry="2.5" fill="#ff6b35" opacity="0.9"/>
  <ellipse cx="42" cy="50" rx="2.5" ry="2" fill="#ff8c42" opacity="0.8"/>
  <ellipse cx="42" cy="51.5" rx="2" ry="1.5" fill="#ffaa00" opacity="0.7"/>
  <ellipse cx="42" cy="52.5" rx="1.5" ry="1" fill="#ffcc00" opacity="0.6"/>
  
  <!-- Body panels/details (dark blue) -->
  <rect x="26" y="20" width="8" height="3" fill="#2d5a8a" opacity="0.6" rx="1"/>
  <rect x="26" y="26" width="8" height="3" fill="#1a3a5f" opacity="0.6" rx="1"/>
  <rect x="26" y="32" width="8" height="3" fill="#2d5a8a" opacity="0.6" rx="1"/>
  
  <!-- Side panels (dark blue) -->
  <ellipse cx="24" cy="27" rx="2" ry="4" fill="#2d5a8a" opacity="0.5"/>
  <ellipse cx="36" cy="27" rx="2" ry="4" fill="#2d5a8a" opacity="0.5"/>
  
  <!-- Central core (simple rings - dark blue tones) -->
  <circle cx="30" cy="27" r="4" fill="none" stroke="#2d5a8a" stroke-width="1" opacity="0.6"/>
  <circle cx="30" cy="27" r="3" fill="none" stroke="#4a90e2" stroke-width="0.8" opacity="0.7"/>
  <circle cx="30" cy="27" r="2" fill="#4a90e2" opacity="0.4"/>
  <circle cx="30" cy="27" r="1" fill="#7bb3f0" opacity="0.6"/>
  
  <!-- Structural lines -->
  <line x1="22" y1="22" x2="22" y2="34" stroke="#2d5a8a" stroke-width="0.5" opacity="0.4"/>
  <line x1="38" y1="22" x2="38" y2="34" stroke="#2d5a8a" stroke-width="0.5" opacity="0.4"/>
  <line x1="30" y1="16" x2="30" y2="38" stroke="#2d5a8a" stroke-width="0.5" opacity="0.3"/>
  
  <!-- Additional details - small panels (dark blue) -->
  <rect x="23" y="18" width="2" height="2" fill="#2d5a8a" opacity="0.6" rx="0.5"/>
  <rect x="35" y="18" width="2" height="2" fill="#2d5a8a" opacity="0.6" rx="0.5"/>
  <rect x="23" y="36" width="2" height="2" fill="#2d5a8a" opacity="0.6" rx="0.5"/>
  <rect x="35" y="36" width="2" height="2" fill="#2d5a8a" opacity="0.6" rx="0.5"/>
  
  <!-- Wing edge highlights -->
  <line x1="8" y1="28" x2="22" y2="22" stroke="#7bb3f0" stroke-width="1" opacity="0.5"/>
  <line x1="8" y1="32" x2="22" y2="34" stroke="#7bb3f0" stroke-width="1" opacity="0.5"/>
  <line x1="52" y1="28" x2="38" y2="22" stroke="#7bb3f0" stroke-width="1" opacity="0.5"/>
  <line x1="52" y1="32" x2="38" y2="34" stroke="#7bb3f0" stroke-width="1" opacity="0.5"/>
  
  <!-- Shading for depth -->
  <path d="M 30 4 L 26 16 L 22 22 L 22 32 L 26 38 L 30 44" 
        fill="none" stroke="#7bb3f0" stroke-width="0.5" opacity="0.3"/>
  
  <!-- Colorful sparkles/sprinkles on the left side -->
  <circle cx="10" cy="20" r="1.2" fill="#ff3333" opacity="0.9"/>
  <circle cx="8" cy="25" r="1" fill="#ff5555" opacity="0.8"/>
  <circle cx="11" cy="35" r="1.1" fill="#ff4444" opacity="0.85"/>
  <circle cx="9" cy="40" r="0.9" fill="#ff6666" opacity="0.75"/>
  <circle cx="7" cy="22" r="1" fill="#3366ff" opacity="0.9"/>
  <circle cx="10" cy="28" r="1.2" fill="#4488ff" opacity="0.85"/>
  <circle cx="8" cy="32" r="0.9" fill="#5599ff" opacity="0.8"/>
  <circle cx="11" cy="38" r="1.1" fill="#3377ff" opacity="0.9"/>
  <circle cx="9" cy="18" r="1.1" fill="#33ff66" opacity="0.85"/>
  <circle cx="7" cy="27" r="0.9" fill="#44ff88" opacity="0.8"/>
  <circle cx="10" cy="33" r="1" fill="#55ff99" opacity="0.9"/>
  <circle cx="8" cy="42" r="1.2" fill="#33ff77" opacity="0.85"/>
  <circle cx="11" cy="23" r="0.9" fill="#ffff33" opacity="0.9"/>
  <circle cx="9" cy="30" r="1.1" fill="#ffff55" opacity="0.85"/>
  <circle cx="7" cy="37" r="1" fill="#ffff44" opacity="0.8"/>
  <circle cx="8" cy="24" r="1" fill="#ff33ff" opacity="0.85"/>
  <circle cx="10" cy="31" r="1.1" fill="#ff55ff" opacity="0.9"/>
  <circle cx="9" cy="39" r="0.9" fill="#ff44ff" opacity="0.8"/>
  <circle cx="7" cy="26" r="1.1" fill="#33ffff" opacity="0.9"/>
  <circle cx="11" cy="34" r="0.9" fill="#44ffff" opacity="0.85"/>
  <circle cx="8" cy="41" r="1" fill="#55ffff" opacity="0.8"/>
  <circle cx="9" cy="21" r="1" fill="#ff8833" opacity="0.85"/>
  <circle cx="7" cy="29" r="1.2" fill="#ff9944" opacity="0.9"/>
  <circle cx="10" cy="36" r="0.9" fill="#ffaa55" opacity="0.8"/>
  
  <!-- Colorful sparkles/sprinkles on the right side -->
  <circle cx="50" cy="20" r="1.2" fill="#ff3333" opacity="0.9"/>
  <circle cx="52" cy="25" r="1" fill="#ff5555" opacity="0.8"/>
  <circle cx="49" cy="35" r="1.1" fill="#ff4444" opacity="0.85"/>
  <circle cx="51" cy="40" r="0.9" fill="#ff6666" opacity="0.75"/>
  <circle cx="53" cy="22" r="1" fill="#3366ff" opacity="0.9"/>
  <circle cx="50" cy="28" r="1.2" fill="#4488ff" opacity="0.85"/>
  <circle cx="52" cy="32" r="0.9" fill="#5599ff" opacity="0.8"/>
  <circle cx="49" cy="38" r="1.1" fill="#3377ff" opacity="0.9"/>
  <circle cx="51" cy="18" r="1.1" fill="#33ff66" opacity="0.85"/>
  <circle cx="53" cy="27" r="0.9" fill="#44ff88" opacity="0.8"/>
  <circle cx="50" cy="33" r="1" fill="#55ff99" opacity="0.9"/>
  <circle cx="52" cy="42" r="1.2" fill="#33ff77" opacity="0.85"/>
  <circle cx="49" cy="23" r="0.9" fill="#ffff33" opacity="0.9"/>
  <circle cx="51" cy="30" r="1.1" fill="#ffff55" opacity="0.85"/>
  <circle cx="53" cy="37" r="1" fill="#ffff44" opacity="0.8"/>
  <circle cx="52" cy="24" r="1" fill="#ff33ff" opacity="0.85"/>
  <circle cx="50" cy="31" r="1.1" fill="#ff55ff" opacity="0.9"/>
  <circle cx="51" cy="39" r="0.9" fill="#ff44ff" opacity="0.8"/>
  <circle cx="53" cy="26" r="1.1" fill="#33ffff" opacity="0.9"/>
  <circle cx="49" cy="34" r="0.9" fill="#44ffff" opacity="0.85"/>
  <circle cx="52" cy="41" r="1" fill="#55ffff" opacity="0.8"/>
  <circle cx="51" cy="21" r="1" fill="#ff8833" opacity="0.85"/>
  <circle cx="53" cy="29" r="1.2" fill="#ff9944" opacity="0.9"/>
  <circle cx="50" cy="36" r="0.9" fill="#ffaa55" opacity="0.8"/>
  
  <!-- Colorful sparkles/sprinkles on the top -->
  <circle cx="15" cy="8" r="1" fill="#ff3333" opacity="0.85"/>
  <circle cx="25" cy="3" r="1.1" fill="#3366ff" opacity="0.9"/>
  <circle cx="30" cy="2" r="1.2" fill="#33ff66" opacity="0.9"/>
  <circle cx="35" cy="3" r="1" fill="#ffff33" opacity="0.85"/>
  <circle cx="45" cy="8" r="1.1" fill="#ff33ff" opacity="0.9"/>
  <circle cx="20" cy="6" r="0.9" fill="#33ffff" opacity="0.8"/>
  <circle cx="40" cy="6" r="0.9" fill="#ff8833" opacity="0.8"/>
  <circle cx="28" cy="4" r="0.8" fill="#ff5555" opacity="0.75"/>
  <circle cx="32" cy="4" r="0.8" fill="#4488ff" opacity="0.75"/>
  
  <!-- Colorful sparkles/sprinkles on the bottom -->
  <circle cx="15" cy="52" r="1" fill="#ff4444" opacity="0.85"/>
  <circle cx="25" cy="57" r="1.1" fill="#5599ff" opacity="0.9"/>
  <circle cx="30" cy="58" r="1.2" fill="#55ff99" opacity="0.9"/>
  <circle cx="35" cy="57" r="1" fill="#ffff55" opacity="0.85"/>
  <circle cx="45" cy="52" r="1.1" fill="#ff55ff" opacity="0.9"/>
  <circle cx="20" cy="54" r="0.9" fill="#55ffff" opacity="0.8"/>
  <circle cx="40" cy="54" r="0.9" fill="#ffaa55" opacity="0.8"/>
  <circle cx="28" cy="56" r="0.8" fill="#ff6666" opacity="0.75"/>
  <circle cx="32" cy="56" r="0.8" fill="#3377ff" opacity="0.75"/>
  
  <!-- Colorful sparkles/sprinkles diagonally top-left -->
  <circle cx="4" cy="12" r="1" fill="#ff3333" opacity="0.85"/>
  <circle cx="3" cy="15" r="0.9" fill="#3366ff" opacity="0.8"/>
  <circle cx="5" cy="10" r="1.1" fill="#33ff66" opacity="0.9"/>
  <circle cx="2" cy="18" r="0.8" fill="#ffff33" opacity="0.75"/>
  
  <!-- Colorful sparkles/sprinkles diagonally top-right -->
  <circle cx="56" cy="12" r="1" fill="#ff4444" opacity="0.85"/>
  <circle cx="57" cy="15" r="0.9" fill="#4488ff" opacity="0.8"/>
  <circle cx="55" cy="10" r="1.1" fill="#44ff88" opacity="0.9"/>
  <circle cx="58" cy="18" r="0.8" fill="#ffff44" opacity="0.75"/>
  
  <!-- Colorful sparkles/sprinkles diagonally bottom-left -->
  <circle cx="4" cy="48" r="1" fill="#ff5555" opacity="0.85"/>
  <circle cx="3" cy="45" r="0.9" fill="#5599ff" opacity="0.8"/>
  <circle cx="5" cy="50" r="1.1" fill="#55ff99" opacity="0.9"/>
  <circle cx="2" cy="42" r="0.8" fill="#ffff55" opacity="0.75"/>
  
  <!-- Colorful sparkles/sprinkles diagonally bottom-right -->
  <circle cx="56" cy="48" r="1" fill="#ff6666" opacity="0.85"/>
  <circle cx="57" cy="45" r="0.9" fill="#3377ff" opacity="0.8"/>
  <circle cx="55" cy="50" r="1.1" fill="#33ff77" opacity="0.9"/>
  <circle cx="58" cy="42" r="0.8" fill="#ffff66" opacity="0.75"/>
  
  <!-- Additional smaller sparkles scattered around all sides -->
  <circle cx="6" cy="19" r="0.7" fill="#ff00ff" opacity="0.7"/>
  <circle cx="54" cy="19" r="0.7" fill="#00ffff" opacity="0.7"/>
  <circle cx="5" cy="28" r="0.8" fill="#ffff00" opacity="0.75"/>
  <circle cx="55" cy="28" r="0.8" fill="#00ff00" opacity="0.75"/>
  <circle cx="6" cy="43" r="0.7" fill="#ff0088" opacity="0.7"/>
  <circle cx="54" cy="43" r="0.7" fill="#0088ff" opacity="0.7"/>
  <circle cx="12" cy="5" r="0.7" fill="#ff3388" opacity="0.7"/>
  <circle cx="48" cy="5" r="0.7" fill="#3388ff" opacity="0.7"/>
  <circle cx="12" cy="55" r="0.7" fill="#88ff33" opacity="0.7"/>
  <circle cx="48" cy="55" r="0.7" fill="#ff8833" opacity="0.7"/>
  <circle cx="1" cy="30" r="0.6" fill="#ff33aa" opacity="0.65"/>
  <circle cx="59" cy="30" r="0.6" fill="#33aaff" opacity="0.65"/>
  <circle cx="30" cy="1" r="0.6" fill="#aaff33" opacity="0.65"/>
  <circle cx="30" cy="59" r="0.6" fill="#ffaa33" opacity="0.65"/>
</svg>



