<svg width="60" height="60" viewBox="0 0 60 60" xmlns="http://www.w3.org/2000/svg">
  <!-- Förderbereich ship - With enhanced, colorful engine flames -->
  
  <defs>
    <!-- Gradient for main body -->
    <linearGradient id="bodyGradient" x1="0%" y1="0%" x2="0%" y2="100%">
      <stop offset="0%" style="stop-color:#ffb3d9;stop-opacity:1" />
      <stop offset="50%" style="stop-color:#ff99cc;stop-opacity:1" />
      <stop offset="100%" style="stop-color:#ff80b3;stop-opacity:1" />
    </linearGradient>
    
    <!-- Gradient for wings -->
    <linearGradient id="wingGradient" x1="0%" y1="0%" x2="100%" y2="0%">
      <stop offset="0%" style="stop-color:#b3d9ff;stop-opacity:1" />
      <stop offset="50%" style="stop-color:#99ccff;stop-opacity:1" />
      <stop offset="100%" style="stop-color:#80b3ff;stop-opacity:1" />
    </linearGradient>
    
    <!-- Gradient for engine -->
    <radialGradient id="engineGradient" cx="50%" cy="50%">
      <stop offset="0%" style="stop-color:#ffd9b3;stop-opacity:1" />
      <stop offset="100%" style="stop-color:#ffcc99;stop-opacity:1" />
    </radialGradient>
  </defs>
  
  <!-- Main body (spaceship shape) -->
  <path d="M 30 5 L 26 16 L 22 22 L 22 30 L 26 36 L 30 40 L 34 36 L 38 30 L 38 22 L 34 16 Z" 
        fill="url(#bodyGradient)" stroke="#ff66b3" stroke-width="1.5"/>
  
  <!-- Body highlight (top section) -->
  <path d="M 30 5 L 26 16 L 22 22 L 30 22 L 34 16 Z" 
        fill="#ffcce6" opacity="0.6"/>
  
  <!-- Body shadow (bottom section) -->
  <path d="M 30 40 L 34 36 L 38 30 L 38 22 L 34 16 L 30 22 L 26 36 Z" 
        fill="#ff80b3" opacity="0.3"/>
  
  <!-- Nose cone tip -->
  <circle cx="30" cy="5" r="1.5" fill="#ff99cc" stroke="#ff66b3" stroke-width="0.5"/>
  <line x1="30" y1="5" x2="30" y2="7" stroke="#ff99cc" stroke-width="0.8"/>
  
  <!-- Cockpit window (oval) -->
  <ellipse cx="30" cy="18" rx="4" ry="3" fill="#1a1a1a" stroke="#000000" stroke-width="0.8"/>
  <ellipse cx="30" cy="18" rx="3" ry="2" fill="#4a90e2" opacity="0.4"/>
  <!-- Cockpit frame -->
  <ellipse cx="30" cy="18" rx="4" ry="3" fill="none" stroke="#b3d9ff" stroke-width="0.6" opacity="0.7"/>
  
  <!-- Structural panels on body -->
  <path d="M 26 16 L 22 22 L 22 26 L 26 24 Z" fill="#ffcce6" opacity="0.4"/>
  <path d="M 34 16 L 38 22 L 38 26 L 34 24 Z" fill="#ffcce6" opacity="0.4"/>
  <line x1="30" y1="16" x2="30" y2="22" stroke="#ff99cc" stroke-width="0.5" opacity="0.5"/>
  
  <!-- Decorative stars on body -->
  <path d="M 24 28 L 24.3 28.8 L 25.2 29 L 24.3 29.2 L 24 30 L 23.7 29.2 L 22.8 29 L 23.7 28.8 Z" 
        fill="#ffff99" stroke="#ffcc00" stroke-width="0.3"/>
  <path d="M 36 28 L 36.3 28.8 L 37.2 29 L 36.3 29.2 L 36 30 L 35.7 29.2 L 34.8 29 L 35.7 28.8 Z" 
        fill="#ffff99" stroke="#ffcc00" stroke-width="0.3"/>
  
  <!-- Main wings (spaceship style) -->
  <path d="M 22 22 L 12 26 L 12 30 L 22 30" fill="url(#wingGradient)" stroke="#66b3ff" stroke-width="1.5"/>
  <path d="M 38 22 L 48 26 L 48 30 L 38 30" fill="url(#wingGradient)" stroke="#66b3ff" stroke-width="1.5"/>
  
  <!-- Wing highlights -->
  <path d="M 22 22 L 16 24 L 16 26 L 22 26" fill="#cce6ff" opacity="0.6"/>
  <path d="M 38 22 L 44 24 L 44 26 L 38 26" fill="#cce6ff" opacity="0.6"/>
  
  <!-- Wing tips -->
  <path d="M 12 26 L 9 28 L 12 30" fill="#99ccff" stroke="#66b3ff" stroke-width="1"/>
  <path d="M 48 26 L 51 28 L 48 30" fill="#99ccff" stroke="#66b3ff" stroke-width="1"/>
  
  <!-- Wing decorations (small stars) -->
  <path d="M 16 27 L 16.2 27.4 L 16.6 27.5 L 16.2 27.6 L 16 28 L 15.8 27.6 L 15.4 27.5 L 15.8 27.4 Z" 
        fill="#ffff99" opacity="0.8"/>
  <path d="M 44 27 L 44.2 27.4 L 44.6 27.5 L 44.2 27.6 L 44 28 L 43.8 27.6 L 43.4 27.5 L 43.8 27.4 Z" 
        fill="#ffff99" opacity="0.8"/>
  
  <!-- Lower wing pods/nacelles -->
  <ellipse cx="20" cy="36" rx="3.5" ry="5" fill="url(#wingGradient)" stroke="#66b3ff" stroke-width="1.5"/>
  <ellipse cx="40" cy="36" rx="3.5" ry="5" fill="url(#wingGradient)" stroke="#66b3ff" stroke-width="1.5"/>
  
  <!-- Pod highlights -->
  <ellipse cx="20" cy="34" rx="2" ry="3" fill="#cce6ff" opacity="0.6"/>
  <ellipse cx="40" cy="34" rx="2" ry="3" fill="#cce6ff" opacity="0.6"/>
  
  <!-- Pod engine details -->
  <line x1="20" y1="32" x2="20" y2="40" stroke="#99ccff" stroke-width="0.8"/>
  <line x1="40" y1="32" x2="40" y2="40" stroke="#99ccff" stroke-width="0.8"/>
  <circle cx="20" cy="36" r="1" fill="#b3d9ff" opacity="0.7"/>
  <circle cx="40" cy="36" r="1" fill="#b3d9ff" opacity="0.7"/>
  
  <!-- Central engine base -->
  <ellipse cx="30" cy="42" rx="5" ry="4" fill="url(#engineGradient)" stroke="#ffaa66" stroke-width="1.5"/>
  
  <!-- Central engine - ENHANCED COLORFUL FLAMES -->
  <!-- Outer flame layers (largest, coolest - pink/purple) -->
  <ellipse cx="30" cy="57" rx="7" ry="5" fill="#ff99cc" opacity="0.7"/>
  <ellipse cx="30" cy="55.5" rx="6.5" ry="4.5" fill="#ffb3d9" opacity="0.8"/>
  <ellipse cx="30" cy="54" rx="6" ry="4" fill="#ff99cc" opacity="0.85"/>
  
  <!-- Middle flame layers (warmer - orange/yellow) -->
  <ellipse cx="30" cy="52.5" rx="5.5" ry="3.5" fill="#ffcc99" opacity="0.9"/>
  <ellipse cx="30" cy="51" rx="5" ry="3" fill="#ffd9b3" opacity="0.95"/>
  <ellipse cx="30" cy="49.5" rx="4.5" ry="2.5" fill="#ffff99" opacity="1"/>
  
  <!-- Inner flame layers (hottest, white-yellow core) -->
  <ellipse cx="30" cy="48.5" rx="4" ry="3" fill="#ffff99" opacity="1"/>
  <ellipse cx="30" cy="47.5" rx="3.5" ry="2.5" fill="#ffffcc" opacity="1"/>
  <ellipse cx="30" cy="46.5" rx="3" ry="2" fill="#ffffff" opacity="0.95"/>
  <ellipse cx="30" cy="45.5" rx="2.5" ry="1.5" fill="#ffffff" opacity="0.9"/>
  <ellipse cx="30" cy="44.5" rx="2" ry="1" fill="#ffffff" opacity="0.85"/>
  
  <!-- Side engines base -->
  <ellipse cx="20" cy="45" rx="2.5" ry="2" fill="url(#engineGradient)"/>
  <ellipse cx="40" cy="45" rx="2.5" ry="2" fill="url(#engineGradient)"/>
  
  <!-- Left side engine - ENHANCED COLORFUL FLAMES -->
  <!-- Outer layers -->
  <ellipse cx="20" cy="56" rx="5" ry="4" fill="#ff99cc" opacity="0.7"/>
  <ellipse cx="20" cy="54.5" rx="4.5" ry="3.5" fill="#ffb3d9" opacity="0.8"/>
  <ellipse cx="20" cy="53" rx="4" ry="3" fill="#ff99cc" opacity="0.85"/>
  
  <!-- Middle layers -->
  <ellipse cx="20" cy="51.5" rx="3.5" ry="2.5" fill="#ffcc99" opacity="0.9"/>
  <ellipse cx="20" cy="50" rx="3" ry="2" fill="#ffd9b3" opacity="0.95"/>
  <ellipse cx="20" cy="48.5" rx="2.5" ry="1.5" fill="#ffff99" opacity="1"/>
  
  <!-- Inner layers (hottest) -->
  <ellipse cx="20" cy="47" rx="2.5" ry="2" fill="#ffff99" opacity="1"/>
  <ellipse cx="20" cy="46" rx="2" ry="1.5" fill="#ffffcc" opacity="1"/>
  <ellipse cx="20" cy="45.5" rx="1.5" ry="1" fill="#ffffff" opacity="0.95"/>
  <ellipse cx="20" cy="45" rx="1.2" ry="0.8" fill="#ffffff" opacity="0.9"/>
  <ellipse cx="20" cy="44.5" rx="1" ry="0.6" fill="#ffffff" opacity="0.85"/>
  
  <!-- Right side engine - ENHANCED COLORFUL FLAMES -->
  <!-- Outer layers -->
  <ellipse cx="40" cy="56" rx="5" ry="4" fill="#b3d9ff" opacity="0.7"/>
  <ellipse cx="40" cy="54.5" rx="4.5" ry="3.5" fill="#99ccff" opacity="0.8"/>
  <ellipse cx="40" cy="53" rx="4" ry="3" fill="#b3d9ff" opacity="0.85"/>
  
  <!-- Middle layers -->
  <ellipse cx="40" cy="51.5" rx="3.5" ry="2.5" fill="#ffcc99" opacity="0.9"/>
  <ellipse cx="40" cy="50" rx="3" ry="2" fill="#ffd9b3" opacity="0.95"/>
  <ellipse cx="40" cy="48.5" rx="2.5" ry="1.5" fill="#ffff99" opacity="1"/>
  
  <!-- Inner layers (hottest) -->
  <ellipse cx="40" cy="47" rx="2.5" ry="2" fill="#ffff99" opacity="1"/>
  <ellipse cx="40" cy="46" rx="2" ry="1.5" fill="#ffffcc" opacity="1"/>
  <ellipse cx="40" cy="45.5" rx="1.5" ry="1" fill="#ffffff" opacity="0.95"/>
  <ellipse cx="40" cy="45" rx="1.2" ry="0.8" fill="#ffffff" opacity="0.9"/>
  <ellipse cx="40" cy="44.5" rx="1" ry="0.6" fill="#ffffff" opacity="0.85"/>
  
  <!-- Additional flame particles/sparks (colorful) -->
  <circle cx="28" cy="56.5" r="0.8" fill="#ffff99" opacity="0.8"/>
  <circle cx="32" cy="56.5" r="0.8" fill="#ffcc99" opacity="0.8"/>
  <circle cx="16" cy="55.5" r="0.6" fill="#ff99cc" opacity="0.7"/>
  <circle cx="24" cy="55.5" r="0.6" fill="#ffff99" opacity="0.7"/>
  <circle cx="36" cy="55.5" r="0.6" fill="#b3d9ff" opacity="0.7"/>
  <circle cx="44" cy="55.5" r="0.6" fill="#ffff99" opacity="0.7"/>
  
  <!-- Heat glow effect around engines (colorful) -->
  <ellipse cx="30" cy="50" rx="8" ry="6" fill="#ff99cc" opacity="0.15"/>
  <ellipse cx="20" cy="50" rx="6" ry="5" fill="#ff99cc" opacity="0.12"/>
  <ellipse cx="40" cy="50" rx="6" ry="5" fill="#b3d9ff" opacity="0.12"/>
</svg>

