<svg width="60" height="60" viewBox="0 0 60 60" xmlns="http://www.w3.org/2000/svg">
  <!-- Medical theme ship - With colorful sparkles -->
  
  <!-- Main fuselage body (white - ambulance style) -->
  <path d="M 30 5 L 26 18 L 22 22 L 22 32 L 26 36 L 30 42 L 34 36 L 38 32 L 38 22 L 34 18 Z" 
        fill="#ffffff" stroke="#cccccc" stroke-width="1.5"/>
  
  <!-- Red cross on white background (medical symbol) -->
  <rect x="26" y="24" width="8" height="8" fill="#ffffff" stroke="#e74c3c" stroke-width="1"/>
  <rect x="28" y="26" width="4" height="4" fill="#e74c3c"/>
  <rect x="29" y="25" width="2" height="6" fill="#e74c3c"/>
  <rect x="27" y="27" width="6" height="2" fill="#e74c3c"/>
  
  <!-- Red diagonal stripes (ambulance style) -->
  <rect x="22" y="20" width="16" height="2" fill="#e74c3c" transform="rotate(-20 30 21)"/>
  <rect x="22" y="32" width="16" height="2" fill="#e74c3c" transform="rotate(20 30 33)"/>
  
  <!-- Blue emergency lights on top (siren lights) -->
  <rect x="28" y="6" width="4" height="3" fill="#3366ff" rx="1"/>
  <rect x="28" y="6" width="4" height="1.5" fill="#4a90e2" rx="0.5"/>
  <circle cx="30" cy="7.5" r="0.8" fill="#ffffff" opacity="0.8"/>
  
  <!-- Additional blue light on front -->
  <circle cx="30" cy="10" r="2" fill="#3366ff" opacity="0.6"/>
  <circle cx="30" cy="10" r="1.5" fill="#4a90e2" opacity="0.8"/>
  <circle cx="30" cy="10" r="1" fill="#ffffff" opacity="0.9"/>
  
  <!-- Cockpit window (front windshield) -->
  <path d="M 30 8 L 27 14 L 27 16 L 33 16 L 33 14 Z" fill="#1a1a1a" stroke="#000000" stroke-width="0.5" opacity="0.7"/>
  <path d="M 30 8 L 28 13 L 32 13 Z" fill="#4a90e2" opacity="0.3"/>
  
  <!-- Main wings (white with red accents) -->
  <path d="M 22 22 L 10 26 L 10 30 L 22 32" fill="#ffffff" stroke="#cccccc" stroke-width="1.5"/>
  <path d="M 38 22 L 50 26 L 50 30 L 38 32" fill="#ffffff" stroke="#cccccc" stroke-width="1.5"/>
  
  <!-- Red stripes on wings -->
  <rect x="12" y="27" width="8" height="1.5" fill="#e74c3c"/>
  <rect x="40" y="27" width="8" height="1.5" fill="#e74c3c"/>
  
  <!-- Wing extensions (white) -->
  <rect x="8" y="27" width="4" height="4" fill="#ffffff" stroke="#cccccc" stroke-width="0.5"/>
  <rect x="48" y="27" width="4" height="4" fill="#ffffff" stroke="#cccccc" stroke-width="0.5"/>
  
  <!-- Blue lights on wing tips -->
  <circle cx="8" cy="29" r="1" fill="#3366ff" opacity="0.8"/>
  <circle cx="52" cy="29" r="1" fill="#3366ff" opacity="0.8"/>
  
  <!-- Lower engine nacelles/pods (white) -->
  <ellipse cx="18" cy="38" rx="3" ry="5" fill="#ffffff" stroke="#cccccc" stroke-width="0.5"/>
  <ellipse cx="42" cy="38" rx="3" ry="5" fill="#ffffff" stroke="#cccccc" stroke-width="0.5"/>
  
  <!-- Red cross bands on pods -->
  <rect x="16" y="40" width="4" height="2.5" fill="#e74c3c" rx="1"/>
  <rect x="40" y="40" width="4" height="2.5" fill="#e74c3c" rx="1"/>
  <!-- Small crosses on bands -->
  <rect x="17.5" y="41" width="1" height="1.5" fill="#ffffff"/>
  <rect x="17" y="41.5" width="2" height="0.5" fill="#ffffff"/>
  <rect x="41.5" y="41" width="1" height="1.5" fill="#ffffff"/>
  <rect x="41" y="41.5" width="2" height="0.5" fill="#ffffff"/>
  
  <!-- Central engine (orange/red glow) -->
  <ellipse cx="30" cy="46" rx="4" ry="3" fill="#333333"/>
  <ellipse cx="30" cy="50" rx="5" ry="4" fill="#ff6b35" opacity="0.9"/>
  <ellipse cx="30" cy="52" rx="4" ry="3" fill="#ff8c42" opacity="0.8"/>
  <ellipse cx="30" cy="54" rx="3" ry="2" fill="#ffaa00" opacity="0.7"/>
  
  <!-- Side engines (orange/red glow) -->
  <ellipse cx="18" cy="44" rx="2.5" ry="2" fill="#333333"/>
  <ellipse cx="18" cy="47" rx="3" ry="2.5" fill="#ff6b35" opacity="0.9"/>
  <ellipse cx="18" cy="49" rx="2.5" ry="2" fill="#ff8c42" opacity="0.8"/>
  <ellipse cx="18" cy="50.5" rx="2" ry="1.5" fill="#ffaa00" opacity="0.7"/>
  
  <ellipse cx="42" cy="44" rx="2.5" ry="2" fill="#333333"/>
  <ellipse cx="42" cy="47" rx="3" ry="2.5" fill="#ff6b35" opacity="0.9"/>
  <ellipse cx="42" cy="49" rx="2.5" ry="2" fill="#ff8c42" opacity="0.8"/>
  <ellipse cx="42" cy="50.5" rx="2" ry="1.5" fill="#ffaa00" opacity="0.7"/>
  
  <!-- Additional structural details -->
  <line x1="22" y1="22" x2="22" y2="32" stroke="#cccccc" stroke-width="0.5" opacity="0.5"/>
  <line x1="38" y1="22" x2="38" y2="32" stroke="#cccccc" stroke-width="0.5" opacity="0.5"/>
  
  <!-- "AMBULANCE" text area (simplified as rectangles) -->
  <rect x="24" y="18" width="12" height="1.5" fill="#e74c3c" opacity="0.3" rx="0.5"/>
  
  <!-- Red corner accents -->
  <rect x="22" y="22" width="2" height="2" fill="#e74c3c" opacity="0.5"/>
  <rect x="36" y="22" width="2" height="2" fill="#e74c3c" opacity="0.5"/>
  <rect x="22" y="32" width="2" height="2" fill="#e74c3c" opacity="0.5"/>
  <rect x="36" y="32" width="2" height="2" fill="#e74c3c" opacity="0.5"/>
  
  <!-- Colorful sparkles/sprinkles on the left side -->
  <!-- Red sparkles -->
  <circle cx="10" cy="20" r="1.2" fill="#ff3333" opacity="0.9"/>
  <circle cx="8" cy="25" r="1" fill="#ff5555" opacity="0.8"/>
  <circle cx="11" cy="35" r="1.1" fill="#ff4444" opacity="0.85"/>
  <circle cx="9" cy="40" r="0.9" fill="#ff6666" opacity="0.75"/>
  
  <!-- Blue sparkles -->
  <circle cx="7" cy="22" r="1" fill="#3366ff" opacity="0.9"/>
  <circle cx="10" cy="28" r="1.2" fill="#4488ff" opacity="0.85"/>
  <circle cx="8" cy="32" r="0.9" fill="#5599ff" opacity="0.8"/>
  <circle cx="11" cy="38" r="1.1" fill="#3377ff" opacity="0.9"/>
  
  <!-- Green sparkles -->
  <circle cx="9" cy="18" r="1.1" fill="#33ff66" opacity="0.85"/>
  <circle cx="7" cy="27" r="0.9" fill="#44ff88" opacity="0.8"/>
  <circle cx="10" cy="33" r="1" fill="#55ff99" opacity="0.9"/>
  <circle cx="8" cy="42" r="1.2" fill="#33ff77" opacity="0.85"/>
  
  <!-- Yellow sparkles -->
  <circle cx="11" cy="23" r="0.9" fill="#ffff33" opacity="0.9"/>
  <circle cx="9" cy="30" r="1.1" fill="#ffff55" opacity="0.85"/>
  <circle cx="7" cy="37" r="1" fill="#ffff44" opacity="0.8"/>
  
  <!-- Pink/Magenta sparkles -->
  <circle cx="8" cy="24" r="1" fill="#ff33ff" opacity="0.85"/>
  <circle cx="10" cy="31" r="1.1" fill="#ff55ff" opacity="0.9"/>
  <circle cx="9" cy="39" r="0.9" fill="#ff44ff" opacity="0.8"/>
  
  <!-- Cyan sparkles -->
  <circle cx="7" cy="26" r="1.1" fill="#33ffff" opacity="0.9"/>
  <circle cx="11" cy="34" r="0.9" fill="#44ffff" opacity="0.85"/>
  <circle cx="8" cy="41" r="1" fill="#55ffff" opacity="0.8"/>
  
  <!-- Orange sparkles -->
  <circle cx="9" cy="21" r="1" fill="#ff8833" opacity="0.85"/>
  <circle cx="7" cy="29" r="1.2" fill="#ff9944" opacity="0.9"/>
  <circle cx="10" cy="36" r="0.9" fill="#ffaa55" opacity="0.8"/>
  
  <!-- Colorful sparkles/sprinkles on the right side -->
  <!-- Red sparkles -->
  <circle cx="50" cy="20" r="1.2" fill="#ff3333" opacity="0.9"/>
  <circle cx="52" cy="25" r="1" fill="#ff5555" opacity="0.8"/>
  <circle cx="49" cy="35" r="1.1" fill="#ff4444" opacity="0.85"/>
  <circle cx="51" cy="40" r="0.9" fill="#ff6666" opacity="0.75"/>
  
  <!-- Blue sparkles -->
  <circle cx="53" cy="22" r="1" fill="#3366ff" opacity="0.9"/>
  <circle cx="50" cy="28" r="1.2" fill="#4488ff" opacity="0.85"/>
  <circle cx="52" cy="32" r="0.9" fill="#5599ff" opacity="0.8"/>
  <circle cx="49" cy="38" r="1.1" fill="#3377ff" opacity="0.9"/>
  
  <!-- Green sparkles -->
  <circle cx="51" cy="18" r="1.1" fill="#33ff66" opacity="0.85"/>
  <circle cx="53" cy="27" r="0.9" fill="#44ff88" opacity="0.8"/>
  <circle cx="50" cy="33" r="1" fill="#55ff99" opacity="0.9"/>
  <circle cx="52" cy="42" r="1.2" fill="#33ff77" opacity="0.85"/>
  
  <!-- Yellow sparkles -->
  <circle cx="49" cy="23" r="0.9" fill="#ffff33" opacity="0.9"/>
  <circle cx="51" cy="30" r="1.1" fill="#ffff55" opacity="0.85"/>
  <circle cx="53" cy="37" r="1" fill="#ffff44" opacity="0.8"/>
  
  <!-- Pink/Magenta sparkles -->
  <circle cx="52" cy="24" r="1" fill="#ff33ff" opacity="0.85"/>
  <circle cx="50" cy="31" r="1.1" fill="#ff55ff" opacity="0.9"/>
  <circle cx="51" cy="39" r="0.9" fill="#ff44ff" opacity="0.8"/>
  
  <!-- Cyan sparkles -->
  <circle cx="53" cy="26" r="1.1" fill="#33ffff" opacity="0.9"/>
  <circle cx="49" cy="34" r="0.9" fill="#44ffff" opacity="0.85"/>
  <circle cx="52" cy="41" r="1" fill="#55ffff" opacity="0.8"/>
  
  <!-- Orange sparkles -->
  <circle cx="51" cy="21" r="1" fill="#ff8833" opacity="0.85"/>
  <circle cx="53" cy="29" r="1.2" fill="#ff9944" opacity="0.9"/>
  <circle cx="50" cy="36" r="0.9" fill="#ffaa55" opacity="0.8"/>
  
  <!-- Colorful sparkles/sprinkles on the top -->
  <circle cx="15" cy="8" r="1" fill="#ff3333" opacity="0.85"/>
  <circle cx="25" cy="3" r="1.1" fill="#3366ff" opacity="0.9"/>
  <circle cx="30" cy="2" r="1.2" fill="#33ff66" opacity="0.9"/>
  <circle cx="35" cy="3" r="1" fill="#ffff33" opacity="0.85"/>
  <circle cx="45" cy="8" r="1.1" fill="#ff33ff" opacity="0.9"/>
  <circle cx="20" cy="6" r="0.9" fill="#33ffff" opacity="0.8"/>
  <circle cx="40" cy="6" r="0.9" fill="#ff8833" opacity="0.8"/>
  <circle cx="28" cy="4" r="0.8" fill="#ff5555" opacity="0.75"/>
  <circle cx="32" cy="4" r="0.8" fill="#4488ff" opacity="0.75"/>
  
  <!-- Colorful sparkles/sprinkles on the bottom -->
  <circle cx="15" cy="52" r="1" fill="#ff4444" opacity="0.85"/>
  <circle cx="25" cy="57" r="1.1" fill="#5599ff" opacity="0.9"/>
  <circle cx="30" cy="58" r="1.2" fill="#55ff99" opacity="0.9"/>
  <circle cx="35" cy="57" r="1" fill="#ffff55" opacity="0.85"/>
  <circle cx="45" cy="52" r="1.1" fill="#ff55ff" opacity="0.9"/>
  <circle cx="20" cy="54" r="0.9" fill="#55ffff" opacity="0.8"/>
  <circle cx="40" cy="54" r="0.9" fill="#ffaa55" opacity="0.8"/>
  <circle cx="28" cy="56" r="0.8" fill="#ff6666" opacity="0.75"/>
  <circle cx="32" cy="56" r="0.8" fill="#3377ff" opacity="0.75"/>
  
  <!-- Additional smaller sparkles scattered around all sides -->
  <circle cx="6" cy="19" r="0.7" fill="#ff00ff" opacity="0.7"/>
  <circle cx="54" cy="19" r="0.7" fill="#00ffff" opacity="0.7"/>
  <circle cx="5" cy="28" r="0.8" fill="#ffff00" opacity="0.75"/>
  <circle cx="55" cy="28" r="0.8" fill="#00ff00" opacity="0.75"/>
  <circle cx="6" cy="43" r="0.7" fill="#ff0088" opacity="0.7"/>
  <circle cx="54" cy="43" r="0.7" fill="#0088ff" opacity="0.7"/>
  <circle cx="12" cy="5" r="0.7" fill="#ff3388" opacity="0.7"/>
  <circle cx="48" cy="5" r="0.7" fill="#3388ff" opacity="0.7"/>
  <circle cx="12" cy="55" r="0.7" fill="#88ff33" opacity="0.7"/>
  <circle cx="48" cy="55" r="0.7" fill="#ff8833" opacity="0.7"/>
  <circle cx="1" cy="30" r="0.6" fill="#ff33aa" opacity="0.65"/>
  <circle cx="59" cy="30" r="0.6" fill="#33aaff" opacity="0.65"/>
  <circle cx="30" cy="1" r="0.6" fill="#aaff33" opacity="0.65"/>
  <circle cx="30" cy="59" r="0.6" fill="#ffaa33" opacity="0.65"/>
</svg>























