<svg width="60" height="60" viewBox="0 0 60 60" xmlns="http://www.w3.org/2000/svg">
  <!-- Meme theme ship - Chaotic magenta/cyan spaceship top-down view -->
  
  <!-- Main fuselage body (magenta) -->
  <path d="M 30 5 L 26 18 L 22 22 L 22 32 L 26 36 L 30 42 L 34 36 L 38 32 L 38 22 L 34 18 Z" 
        fill="#ff00ff" stroke="#cc00cc" stroke-width="1"/>
  
  <!-- Chaotic/random cockpit window -->
  <path d="M 30 8 L 27 16 L 29 17 L 31 16 L 33 17 L 30 18 Z" fill="#1a1a1a" stroke="#000000" stroke-width="0.5"/>
  <!-- Random pixels/glitch effect -->
  <rect x="28" y="10" width="1" height="1" fill="#00ffff"/>
  <rect x="31" y="12" width="1" height="1" fill="#00ffff"/>
  
  <!-- Meme elements - emoji faces -->
  <circle cx="24" cy="24" r="3" fill="#ffff00" stroke="#ff00ff" stroke-width="0.5"/>
  <circle cx="24" cy="23" r="0.8" fill="#000000"/>
  <circle cx="25" cy="23" r="0.8" fill="#000000"/>
  <path d="M 23 25 Q 24 26, 25 25" fill="none" stroke="#000000" stroke-width="0.5" stroke-linecap="round"/>
  
  <circle cx="36" cy="24" r="3" fill="#00ffff" stroke="#ff00ff" stroke-width="0.5"/>
  <circle cx="35.5" cy="23" r="0.8" fill="#000000"/>
  <circle cx="36.5" cy="23" r="0.8" fill="#000000"/>
  <path d="M 35 25 Q 36 26.5, 37 25" fill="none" stroke="#000000" stroke-width="0.5" stroke-linecap="round"/>
  
  <!-- Chaotic stripes -->
  <rect x="24" y="28" width="12" height="1" fill="#00ffff" transform="rotate(15 30 28.5)"/>
  <rect x="24" y="30" width="12" height="1" fill="#ffff00" transform="rotate(-15 30 30.5)"/>
  
  <!-- Main wings (magenta/cyan mix) -->
  <path d="M 22 22 L 10 26 L 10 30 L 22 32" fill="#ff00ff" stroke="#cc00cc" stroke-width="1"/>
  <path d="M 38 22 L 50 26 L 50 30 L 38 32" fill="#00ffff" stroke="#00cccc" stroke-width="1"/>
  
  <!-- Wing extensions (alternating colors) -->
  <rect x="8" y="27" width="4" height="4" fill="#00ffff" stroke="#00cccc" stroke-width="0.5"/>
  <rect x="48" y="27" width="4" height="4" fill="#ff00ff" stroke="#cc00cc" stroke-width="0.5"/>
  
  <!-- Chaotic accent stripes on wings -->
  <rect x="12" y="27" width="8" height="1" fill="#00ffff"/>
  <rect x="40" y="27" width="8" height="1" fill="#ff00ff"/>
  
  <!-- Lower engine nacelles/pods (magenta/cyan) -->
  <ellipse cx="18" cy="38" rx="3" ry="5" fill="#ff00ff" stroke="#cc00cc" stroke-width="0.5"/>
  <ellipse cx="42" cy="38" rx="3" ry="5" fill="#00ffff" stroke="#00cccc" stroke-width="0.5"/>
  
  <!-- Accent bands on pods -->
  <rect x="16" y="40" width="4" height="2.5" fill="#00ffff" rx="1"/>
  <rect x="40" y="40" width="4" height="2.5" fill="#ff00ff" rx="1"/>
  
  <!-- Central engine (magenta/cyan glow) -->
  <ellipse cx="30" cy="46" rx="4" ry="3" fill="#333333"/>
  <ellipse cx="30" cy="50" rx="5" ry="4" fill="#ff00ff" opacity="0.9"/>
  <ellipse cx="30" cy="52" rx="4" ry="3" fill="#00ffff" opacity="0.7"/>
  <ellipse cx="30" cy="54" rx="3" ry="2" fill="#cc00cc" opacity="0.5"/>
  
  <!-- Side engines (alternating colors) -->
  <ellipse cx="18" cy="44" rx="2.5" ry="2" fill="#333333"/>
  <ellipse cx="18" cy="47" rx="3" ry="2.5" fill="#ff00ff" opacity="0.9"/>
  <ellipse cx="18" cy="49" rx="2.5" ry="2" fill="#cc00cc" opacity="0.7"/>
  <ellipse cx="18" cy="50.5" rx="2" ry="1.5" fill="#990099" opacity="0.5"/>
  
  <ellipse cx="42" cy="44" rx="2.5" ry="2" fill="#333333"/>
  <ellipse cx="42" cy="47" rx="3" ry="2.5" fill="#00ffff" opacity="0.9"/>
  <ellipse cx="42" cy="49" rx="2.5" ry="2" fill="#00cccc" opacity="0.7"/>
  <ellipse cx="42" cy="50.5" rx="2" ry="1.5" fill="#009999" opacity="0.5"/>
  
  <!-- Additional chaotic details -->
  <line x1="22" y1="22" x2="22" y2="32" stroke="#00ffff" stroke-width="0.5" opacity="0.5"/>
  <line x1="38" y1="22" x2="38" y2="32" stroke="#ff00ff" stroke-width="0.5" opacity="0.5"/>
  
  <!-- Random pixels/glitch -->
  <rect x="20" y="20" width="1" height="1" fill="#00ffff"/>
  <rect x="39" y="21" width="1" height="1" fill="#ffff00"/>
</svg>

