<svg width="60" height="60" viewBox="0 0 60 60" xmlns="http://www.w3.org/2000/svg">
  <!-- Movie theme ship - Futuristic purple cinema spaceship top-down view -->
  
  <!-- Main fuselage body (purple) -->
  <path d="M 30 5 L 26 18 L 22 22 L 22 32 L 26 36 L 30 42 L 34 36 L 38 32 L 38 22 L 34 18 Z" 
        fill="#9b59b6" stroke="#8e44ad" stroke-width="1"/>
  
  <!-- Darker purple paneling lines -->
  <line x1="26" y1="20" x2="34" y2="20" stroke="#7d3a9d" stroke-width="0.5"/>
  <line x1="24" y1="24" x2="36" y2="24" stroke="#7d3a9d" stroke-width="0.5"/>
  <line x1="24" y1="30" x2="36" y2="30" stroke="#7d3a9d" stroke-width="0.5"/>
  
  <!-- Camera lens cockpit window (circular, dark) -->
  <circle cx="30" cy="12" r="4" fill="#1a1a1a" stroke="#000000" stroke-width="0.5"/>
  <circle cx="30" cy="12" r="2.5" fill="#2a2a2a"/>
  <circle cx="30" cy="12" r="1" fill="#4a4a4a"/>
  
  <!-- Film reel elements on sides (circular reels) -->
  <!-- Left film reel -->
  <circle cx="18" cy="20" r="5" fill="#7d3a9d" stroke="#6b2a8d" stroke-width="1"/>
  <circle cx="18" cy="20" r="3.5" fill="none" stroke="#9b59b6" stroke-width="0.5"/>
  <circle cx="18" cy="20" r="2" fill="#6b2a8d"/>
  <!-- Reel spokes -->
  <line x1="18" y1="15" x2="18" y2="25" stroke="#6b2a8d" stroke-width="0.5"/>
  <line x1="13" y1="20" x2="23" y2="20" stroke="#6b2a8d" stroke-width="0.5"/>
  <line x1="15.5" y1="15.5" x2="20.5" y2="24.5" stroke="#6b2a8d" stroke-width="0.5"/>
  <line x1="20.5" y1="15.5" x2="15.5" y2="24.5" stroke="#6b2a8d" stroke-width="0.5"/>
  
  <!-- Right film reel -->
  <circle cx="42" cy="20" r="5" fill="#7d3a9d" stroke="#6b2a8d" stroke-width="1"/>
  <circle cx="42" cy="20" r="3.5" fill="none" stroke="#9b59b6" stroke-width="0.5"/>
  <circle cx="42" cy="20" r="2" fill="#6b2a8d"/>
  <!-- Reel spokes -->
  <line x1="42" y1="15" x2="42" y2="25" stroke="#6b2a8d" stroke-width="0.5"/>
  <line x1="37" y1="20" x2="47" y2="20" stroke="#6b2a8d" stroke-width="0.5"/>
  <line x1="39.5" y1="15.5" x2="44.5" y2="24.5" stroke="#6b2a8d" stroke-width="0.5"/>
  <line x1="44.5" y1="15.5" x2="39.5" y2="24.5" stroke="#6b2a8d" stroke-width="0.5"/>
  
  <!-- Projector-like front section -->
  <rect x="28" y="5" width="4" height="8" fill="#8e44ad" rx="1"/>
  <rect x="27" y="6" width="6" height="6" fill="#7d3a9d" rx="0.5"/>
  
  <!-- Main wings (purple, angular) -->
  <path d="M 22 22 L 10 26 L 10 30 L 22 32" fill="#9b59b6" stroke="#8e44ad" stroke-width="1"/>
  <path d="M 38 22 L 50 26 L 50 30 L 38 32" fill="#9b59b6" stroke="#8e44ad" stroke-width="1"/>
  
  <!-- Wing extensions (rectangular) -->
  <rect x="8" y="27" width="4" height="4" fill="#9b59b6" stroke="#8e44ad" stroke-width="0.5"/>
  <rect x="48" y="27" width="4" height="4" fill="#9b59b6" stroke="#8e44ad" stroke-width="0.5"/>
  
  <!-- Purple accent stripes on wings -->
  <rect x="12" y="27" width="8" height="1" fill="#8e44ad"/>
  <rect x="40" y="27" width="8" height="1" fill="#8e44ad"/>
  
  <!-- Lower engine nacelles/pods (purple) -->
  <ellipse cx="18" cy="38" rx="3" ry="5" fill="#9b59b6" stroke="#8e44ad" stroke-width="0.5"/>
  <ellipse cx="42" cy="38" rx="3" ry="5" fill="#9b59b6" stroke="#8e44ad" stroke-width="0.5"/>
  
  <!-- Purple accent bands on pods -->
  <rect x="16" y="40" width="4" height="2.5" fill="#8e44ad" rx="1"/>
  <rect x="40" y="40" width="4" height="2.5" fill="#8e44ad" rx="1"/>
  
  <!-- Central engine (purple glow) -->
  <ellipse cx="30" cy="46" rx="4" ry="3" fill="#333333"/>
  <ellipse cx="30" cy="50" rx="5" ry="4" fill="#9b59b6" opacity="0.9"/>
  <ellipse cx="30" cy="52" rx="4" ry="3" fill="#8e44ad" opacity="0.7"/>
  <ellipse cx="30" cy="54" rx="3" ry="2" fill="#7d3a9d" opacity="0.5"/>
  
  <!-- Side engines (purple glow) -->
  <ellipse cx="18" cy="44" rx="2.5" ry="2" fill="#333333"/>
  <ellipse cx="18" cy="47" rx="3" ry="2.5" fill="#9b59b6" opacity="0.9"/>
  <ellipse cx="18" cy="49" rx="2.5" ry="2" fill="#8e44ad" opacity="0.7"/>
  <ellipse cx="18" cy="50.5" rx="2" ry="1.5" fill="#7d3a9d" opacity="0.5"/>
  
  <ellipse cx="42" cy="44" rx="2.5" ry="2" fill="#333333"/>
  <ellipse cx="42" cy="47" rx="3" ry="2.5" fill="#9b59b6" opacity="0.9"/>
  <ellipse cx="42" cy="49" rx="2.5" ry="2" fill="#8e44ad" opacity="0.7"/>
  <ellipse cx="42" cy="50.5" rx="2" ry="1.5" fill="#7d3a9d" opacity="0.5"/>
  
  <!-- Additional structural details -->
  <line x1="22" y1="22" x2="22" y2="32" stroke="#7d3a9d" stroke-width="0.5" opacity="0.5"/>
  <line x1="38" y1="22" x2="38" y2="32" stroke="#7d3a9d" stroke-width="0.5" opacity="0.5"/>
  
  <!-- Film strip decorative elements on body (colorful RGB strips) -->
  <rect x="24" y="26" width="4" height="1.5" fill="#ff3333" rx="0.3"/>
  <rect x="28" y="26" width="4" height="1.5" fill="#33ff33" rx="0.3"/>
  <rect x="32" y="26" width="4" height="1.5" fill="#3333ff" rx="0.3"/>
  <rect x="24" y="28.5" width="4" height="1.5" fill="#ffff33" rx="0.3"/>
  <rect x="28" y="28.5" width="4" height="1.5" fill="#ff33ff" rx="0.3"/>
  <rect x="32" y="28.5" width="4" height="1.5" fill="#33ffff" rx="0.3"/>
  
  <!-- Colorful projector light beams -->
  <path d="M 30 5 L 28 8 L 32 8 Z" fill="#ff6b35" opacity="0.6"/>
  <path d="M 30 5 L 27 9 L 33 9 Z" fill="#ffaa00" opacity="0.5"/>
  <path d="M 30 5 L 26 10 L 34 10 Z" fill="#ffff00" opacity="0.4"/>
  
  <!-- Colorful accents on film reels -->
  <circle cx="18" cy="20" r="1.5" fill="#ff6b35" opacity="0.7"/>
  <circle cx="42" cy="20" r="1.5" fill="#00cc88" opacity="0.7"/>
  
  <!-- Colorful wing accents -->
  <rect x="12" y="27" width="2" height="1" fill="#ff3333"/>
  <rect x="14" y="27" width="2" height="1" fill="#33ff33"/>
  <rect x="16" y="27" width="2" height="1" fill="#3333ff"/>
  <rect x="18" y="27" width="2" height="1" fill="#ffff33"/>
  
  <rect x="40" y="27" width="2" height="1" fill="#ff33ff"/>
  <rect x="42" y="27" width="2" height="1" fill="#33ffff"/>
  <rect x="44" y="27" width="2" height="1" fill="#ff6b35"/>
  <rect x="46" y="27" width="2" height="1" fill="#00cc88"/>
  
  <!-- Colorful accent bands on pods -->
  <rect x="16" y="40" width="1.3" height="2.5" fill="#ff3333" rx="0.5"/>
  <rect x="17.3" y="40" width="1.3" height="2.5" fill="#33ff33" rx="0.5"/>
  <rect x="18.6" y="40" width="1.3" height="2.5" fill="#3333ff" rx="0.5"/>
  <rect x="19.9" y="40" width="0.1" height="2.5" fill="#ffff33" rx="0.5"/>
  
  <rect x="40" y="40" width="1.3" height="2.5" fill="#ff33ff" rx="0.5"/>
  <rect x="41.3" y="40" width="1.3" height="2.5" fill="#33ffff" rx="0.5"/>
  <rect x="42.6" y="40" width="1.3" height="2.5" fill="#ff6b35" rx="0.5"/>
  <rect x="43.9" y="40" width="0.1" height="2.5" fill="#00cc88" rx="0.5"/>
  
  <!-- Colorful small panels/details -->
  <rect x="23" y="18" width="2" height="2" fill="#ff6b35" opacity="0.8" rx="0.5"/>
  <rect x="35" y="18" width="2" height="2" fill="#00cc88" opacity="0.8" rx="0.5"/>
  <rect x="23" y="36" width="2" height="2" fill="#ffaa00" opacity="0.8" rx="0.5"/>
  <rect x="35" y="36" width="2" height="2" fill="#ff33ff" opacity="0.8" rx="0.5"/>
  
  <!-- Colorful dots on body -->
  <circle cx="25" cy="22" r="0.8" fill="#ffff33" opacity="0.8"/>
  <circle cx="35" cy="22" r="0.8" fill="#33ffff" opacity="0.8"/>
  <circle cx="25" cy="34" r="0.8" fill="#ff6b35" opacity="0.8"/>
  <circle cx="35" cy="34" r="0.8" fill="#00cc88" opacity="0.8"/>
  
  <!-- Colorful wing tips -->
  <circle cx="8" cy="28" r="1" fill="#ff6b35" opacity="0.7"/>
  <circle cx="8" cy="32" r="1" fill="#00cc88" opacity="0.7"/>
  <circle cx="52" cy="28" r="1" fill="#ffaa00" opacity="0.7"/>
  <circle cx="52" cy="32" r="1" fill="#ff33ff" opacity="0.7"/>
</svg>

